<?xml version="1.0" standalone="no"?>
<!DOCTYPE svg PUBLIC "-//W3C//DTD SVG 20010904//EN"
 "http://www.w3.org/TR/2001/REC-SVG-20010904/DTD/svg10.dtd">
<svg version="1.0" xmlns="http://www.w3.org/2000/svg"
 width="1550.000000pt" height="1034.000000pt" viewBox="0 0 1550.000000 1034.000000"
 preserveAspectRatio="xMidYMid meet">

<g transform="translate(0.000000,1034.000000) scale(0.100000,-0.100000)"
fill="#000000" stroke="none">
<path d="M3946 10283 c2 -32 9 -186 14 -343 6 -157 15 -406 20 -555 16 -446
32 -1015 31 -1100 -6 -446 -3 -654 9 -698 15 -48 26 -57 48 -35 9 9 12 9 12 0
0 -7 16 -12 40 -12 l40 0 0 40 c0 40 0 40 39 40 32 0 40 4 45 23 5 18 8 20 16
7 14 -21 12 -30 -5 -30 -16 0 -21 -26 -6 -32 4 -1 12 -13 15 -25 6 -17 3 -23
-8 -23 -9 0 -16 -8 -16 -17 0 -14 2 -15 9 -5 7 11 10 10 15 -3 3 -9 6 -25 6
-36 0 -10 3 -19 8 -19 8 0 6 401 -8 1420 -6 393 -10 883 -10 1088 l0 372 -159
0 -159 0 4 -57z"/>
<path d="M11713 10293 c7 -76 -11 -1163 -24 -1432 -14 -297 -13 -275 -20 -281
-11 -8 -29 -363 -39 -761 -5 -206 -12 -382 -15 -390 -3 -8 -9 -70 -15 -139
-10 -129 -23 -251 -40 -355 -6 -37 -6 -116 0 -210 5 -82 10 -270 10 -417 0
-271 -10 -368 -37 -368 -7 0 -13 -6 -13 -14 0 -7 -9 -16 -21 -19 -11 -3 -23
-15 -26 -26 -3 -12 -12 -21 -19 -21 -8 0 -14 -4 -14 -9 0 -10 -41 -27 -87 -36
-28 -6 -33 -12 -43 -56 -7 -27 -16 -52 -21 -55 -5 -3 -9 -11 -9 -19 0 -15 31
-21 158 -31 60 -4 82 -10 82 -20 0 -8 4 -14 8 -14 5 0 15 -12 22 -27 10 -22
13 -97 11 -320 l-2 -293 31 0 c28 0 30 2 30 40 0 29 4 40 15 40 12 0 15 16 15
80 0 64 3 80 15 80 12 0 15 16 15 80 0 79 0 80 25 80 23 0 25 4 25 40 0 29 4
40 15 40 11 0 15 -11 15 -40 l0 -40 40 0 c35 0 40 -3 40 -23 0 -13 6 -29 13
-36 10 -11 10 -14 0 -18 -27 -10 -11 -23 27 -23 22 0 40 -3 40 -7 0 -5 36 -9
79 -9 76 -2 195 -29 186 -43 -2 -4 9 -5 26 -3 25 4 28 2 23 -14 -5 -18 -5 -18
6 -1 12 18 60 24 60 7 0 -6 30 -10 69 -10 39 0 73 5 76 10 3 6 21 10 38 10 18
1 43 7 57 15 31 18 97 19 102 3 7 -19 198 -24 229 -7 32 18 351 25 428 10 84
-16 204 -26 311 -25 52 1 222 2 377 3 159 2 285 7 288 12 4 5 14 9 23 9 10 0
38 11 63 24 96 51 162 60 424 58 249 -2 443 -24 525 -59 53 -22 111 -40 153
-47 l37 -7 0 352 0 352 -427 -6 c-236 -4 -1033 -10 -1773 -13 -1293 -6 -1346
-5 -1379 13 -46 24 -74 77 -66 126 3 20 20 64 37 98 29 55 31 64 21 100 -12
45 -1 122 20 144 8 7 20 35 27 62 7 26 19 55 27 64 7 8 13 20 13 26 0 6 27 16
61 23 72 15 165 0 187 -31 7 -11 19 -19 27 -19 7 0 17 -10 20 -22 16 -53 61
-138 74 -138 10 0 12 -16 6 -79 -5 -52 -3 -81 4 -85 6 -4 62 -4 126 0 l115 7
0 43 c0 24 5 44 10 44 6 0 10 -9 10 -20 0 -18 4 -20 40 -14 24 4 40 3 40 -3 0
-5 18 -16 40 -23 26 -9 40 -19 40 -30 0 -23 98 -30 483 -35 160 -2 326 -7 367
-10 41 -3 395 -10 785 -15 391 -5 790 -13 888 -16 l177 -7 0 661 0 661 -27 -9
c-16 -4 -50 -18 -78 -30 -39 -17 -54 -19 -73 -11 -12 6 -57 11 -98 11 -41 0
-84 5 -95 11 -20 10 -37 7 -130 -27 -31 -11 -40 -10 -65 3 -22 12 -58 16 -141
15 -124 0 -133 2 -237 73 -55 37 -65 40 -138 44 -43 2 -84 -1 -91 -7 -6 -5
-32 -13 -57 -17 -25 -4 -67 -18 -95 -30 -27 -13 -85 -28 -128 -34 -43 -6 -87
-15 -97 -21 -10 -5 -39 -10 -64 -10 -25 0 -47 -4 -50 -9 -3 -5 -22 -12 -41
-15 -19 -4 -35 -11 -35 -15 0 -5 -6 -9 -12 -8 -46 1 -68 -5 -68 -18 0 -11 -11
-15 -39 -15 -22 0 -41 -5 -43 -11 -12 -35 -238 -38 -238 -3 0 8 -7 14 -15 14
-8 0 -15 5 -15 11 0 5 -27 38 -60 71 -33 34 -60 65 -60 70 0 4 -8 8 -19 8 -10
0 -32 7 -47 15 -53 27 -87 21 -213 -39 -51 -24 -104 -75 -125 -121 -9 -17 -31
-40 -51 -50 -19 -11 -35 -25 -35 -31 0 -12 -89 -24 -185 -24 -48 0 -68 -5 -89
-21 -23 -18 -41 -26 -69 -28 -5 -1 -6 -5 -2 -10 6 -10 -55 -61 -73 -61 -23 0
-42 -33 -42 -71 0 -21 -4 -39 -10 -39 -16 0 -12 -37 5 -44 8 -3 12 -12 9 -21
-5 -11 2 -15 27 -16 19 -1 37 -1 42 0 4 0 7 -5 7 -13 0 -16 85 -45 164 -56 34
-5 58 -3 75 6 14 8 31 14 37 14 18 0 99 48 97 57 0 4 3 7 8 6 5 -2 9 2 9 9 0
6 3 9 6 5 3 -3 32 10 63 28 47 28 65 33 94 28 27 -4 37 -11 41 -29 4 -13 11
-24 16 -24 17 0 12 -87 -5 -94 -8 -3 -15 -11 -15 -18 0 -10 2 -10 9 1 7 11 11
8 16 -10 4 -13 16 -30 26 -37 11 -7 19 -21 19 -31 0 -18 -37 -41 -66 -41 -8 0
-17 -6 -20 -14 -3 -8 -20 -18 -37 -22 -18 -3 -37 -10 -43 -15 -6 -5 -38 -14
-70 -20 -78 -13 -124 -28 -124 -40 0 -17 -25 -9 -38 11 -9 16 -23 20 -62 20
-49 0 -100 16 -100 32 0 4 -9 8 -20 8 -12 0 -20 7 -20 18 0 25 -70 49 -162 58
-66 5 -78 9 -78 25 0 10 -16 27 -39 40 -58 32 -81 81 -81 173 0 41 -6 95 -14
118 -8 24 -17 84 -21 133 -4 50 -14 115 -23 145 -17 59 -18 107 -14 665 3 302
19 687 62 1495 5 102 14 273 20 380 5 107 13 248 16 313 l7 117 -183 0 -182 0
5 -47z m3262 -3682 c3 -6 -5 -27 -17 -48 -16 -28 -21 -51 -19 -89 l2 -52 -48
-6 c-26 -3 -68 -8 -92 -12 -42 -6 -43 -6 -36 17 4 13 14 31 21 40 8 8 14 26
14 40 0 13 4 31 9 38 6 9 6 22 0 33 -5 10 -8 18 -7 18 2 0 21 7 43 15 46 16
121 20 130 6z m-259 -95 c0 0 -1 -22 -4 -48 -3 -39 -8 -48 -23 -48 -10 0 -19
-4 -19 -9 0 -17 -31 -41 -53 -41 -41 1 -59 25 -60 77 0 93 -7 86 81 78 42 -4
77 -8 78 -9z"/>
<path d="M494 7998 c-11 -13 -36 -49 -55 -81 -19 -32 -61 -88 -94 -124 -58
-63 -62 -65 -121 -72 -77 -9 -84 -6 -84 31 0 30 0 31 -20 13 -11 -10 -37 -51
-57 -92 -20 -41 -43 -79 -50 -85 -16 -13 -19 -242 -4 -236 6 2 50 40 100 86
49 45 92 82 96 82 3 0 25 13 48 28 23 16 62 38 87 50 25 12 61 41 80 64 19 23
47 54 63 69 15 15 27 32 27 37 0 6 3 12 8 14 4 2 17 24 30 50 19 39 22 56 16
95 -4 26 -16 57 -28 70 l-22 24 -20 -23z"/>
<path d="M517 7513 c-10 -9 -8 -53 2 -53 11 0 21 -63 14 -90 -4 -17 -12 -20
-36 -18 -25 2 -35 12 -56 52 -42 80 -49 84 -67 41 -19 -46 -23 -384 -5 -490
33 -205 43 -276 46 -331 1 -34 10 -91 18 -125 8 -35 18 -86 22 -112 5 -41 9
-46 21 -36 11 9 21 9 40 0 14 -6 43 -11 64 -11 55 0 89 -36 124 -134 l29 -80
-17 -50 c-33 -92 -5 -86 -383 -86 l-333 0 0 -530 c0 -498 1 -530 18 -530 9 0
33 14 52 31 19 17 46 39 60 48 14 8 31 24 38 33 7 10 20 18 28 18 8 0 42 27
75 61 39 39 76 66 103 75 47 16 82 48 88 79 3 20 6 21 53 24 33 1 32 24 -1 41
-36 20 -112 112 -96 118 6 2 12 12 12 21 0 10 9 26 19 35 24 22 55 14 92 -21
26 -24 27 -29 25 -116 -1 -51 -7 -102 -14 -114 -18 -33 -15 -51 13 -69 29 -19
32 -40 10 -72 -15 -20 -14 -24 5 -44 11 -12 20 -35 20 -54 0 -17 6 -44 14 -59
16 -31 9 -65 -26 -131 l-21 -41 21 -29 c12 -16 24 -53 27 -86 7 -53 6 -57 -16
-60 -25 -3 -51 -43 -70 -108 -13 -44 -66 -90 -102 -90 -13 0 -17 -5 -13 -16 3
-9 6 -22 6 -29 0 -8 14 -30 30 -48 17 -19 30 -41 30 -50 0 -19 26 -41 39 -32
6 3 19 1 29 -4 23 -12 18 -64 -9 -100 -11 -13 -19 -37 -19 -52 0 -42 34 -39
62 6 13 19 31 38 41 41 23 7 90 -44 96 -72 6 -35 22 -44 80 -44 35 0 65 -6 78
-15 26 -18 56 -107 102 -298 17 -70 38 -144 47 -165 15 -36 16 -36 30 -17 16
21 13 77 -8 167 -10 40 -9 53 5 83 28 58 22 98 -30 193 -25 48 -65 114 -87
147 l-42 60 9 80 c4 44 7 102 7 129 -1 34 4 55 18 70 10 11 25 36 32 54 12 31
11 49 -7 190 -6 50 14 88 51 98 59 15 109 -66 99 -161 -6 -57 3 -70 25 -35 9
14 9 26 1 43 -9 20 -7 28 15 52 30 32 29 30 26 109 -1 40 1 56 9 52 6 -4 11
-14 11 -22 0 -26 29 -15 35 14 3 15 9 43 13 62 4 19 4 67 1 105 -5 50 -3 78 7
97 8 15 14 48 14 73 0 60 22 102 64 119 34 14 51 43 60 108 2 21 16 53 30 71
14 19 26 39 26 45 0 18 115 91 159 101 49 11 112 -1 152 -29 39 -28 46 -26 70
25 11 24 28 46 37 49 54 16 94 16 142 2 71 -21 102 -20 133 4 l26 21 40 -21
c53 -26 60 -25 72 8 l10 29 192 -2 c106 -1 264 3 352 7 88 5 266 9 395 9 129
0 246 3 259 6 21 5 22 7 6 16 -14 8 -15 11 -4 18 9 5 -11 9 -53 9 l-68 0 0 80
c0 44 -1 80 -2 81 -2 0 -133 5 -293 11 -367 14 -651 16 -737 4 -59 -8 -71 -6
-109 13 -34 18 -47 20 -68 11 -36 -14 -41 -14 -611 -5 -388 6 -510 10 -526 20
-12 8 -38 17 -58 20 -77 15 -123 102 -78 151 9 10 25 35 36 54 43 82 41 82
199 91 78 5 186 13 239 19 71 8 132 8 224 0 98 -9 136 -9 170 0 24 7 44 16 44
20 0 4 17 25 38 47 30 32 51 44 106 58 49 13 78 28 101 51 18 17 43 35 56 39
13 4 32 14 41 22 9 8 21 12 26 9 5 -3 27 4 49 15 38 19 62 20 318 21 210 1
280 5 293 15 16 12 15 14 -7 31 -37 30 -111 44 -181 36 -43 -5 -64 -3 -69 5
-10 15 -283 -1 -289 -18 -4 -13 -32 -15 -32 -2 0 4 -40 11 -90 14 -67 4 -100
11 -130 28 -36 21 -52 39 -32 39 4 0 12 10 17 22 6 12 19 26 30 32 11 6 24 16
28 21 6 6 10 6 14 -2 9 -24 21 -13 43 41 29 69 47 77 152 70 121 -8 208 -36
208 -66 0 -10 7 -18 15 -18 8 0 23 -9 32 -19 9 -11 20 -18 25 -15 4 3 8 -9 8
-25 0 -29 2 -31 40 -31 22 0 40 5 40 10 0 6 7 10 16 10 9 0 23 8 30 18 13 16
15 16 28 -1 8 -11 15 -14 18 -7 2 6 11 12 21 14 10 1 26 9 36 18 22 18 200 30
465 29 140 -1 187 3 206 14 14 8 32 17 40 21 8 4 37 23 64 42 57 42 114 50
221 33 61 -9 73 -8 100 7 43 26 75 78 75 123 0 22 -3 39 -8 39 -4 0 -6 18 -4
40 3 32 1 40 -12 40 -9 0 -16 8 -16 18 -1 16 -1 16 -14 0 -7 -10 -25 -18 -40
-18 -16 0 -26 -5 -26 -15 0 -11 -12 -15 -49 -15 -27 0 -62 -5 -77 -10 -43 -17
-196 -18 -250 -2 -27 7 -104 15 -172 16 -76 2 -127 7 -135 15 -23 23 -57 10
-118 -44 -34 -31 -71 -58 -83 -60 -151 -35 -240 -36 -306 -1 -63 34 -69 36
-99 36 -16 0 -31 -6 -34 -14 -3 -7 -39 -21 -81 -31 -73 -17 -79 -17 -153 0
-43 10 -89 24 -103 31 l-25 13 33 1 c31 0 32 2 32 40 l0 40 -43 0 c-30 0 -49
6 -61 19 -16 17 -59 33 -96 35 -8 1 -16 10 -18 20 -6 27 -79 94 -128 116 -76
35 -194 49 -321 37 -77 -7 -117 -7 -121 -1 -20 31 -72 24 -72 -8 0 -19 -5 -20
-51 -16 -28 3 -68 2 -88 -3 -22 -5 -49 -4 -68 2 -32 10 -33 12 -27 52 l6 42
-22 -34 c-20 -32 -21 -61 -1 -61 5 0 9 -13 9 -30 -1 -24 -5 -30 -24 -30 -13 0
-26 5 -29 10 -3 6 -1 10 6 10 10 0 10 3 0 13 -11 10 -14 10 -18 0 -3 -7 -12
-13 -21 -14 -11 0 -12 -2 -4 -6 17 -7 15 -23 -3 -23 -8 0 -15 -4 -15 -10 0 -5
5 -10 10 -10 6 0 10 -7 10 -15 0 -21 -42 -19 -68 4 -18 15 -22 29 -22 78 0 32
-6 67 -13 77 -11 15 -18 16 -60 6 -26 -7 -53 -10 -62 -7 -8 4 -29 1 -46 -5
-19 -6 -34 -7 -38 -1 -6 9 -55 25 -133 42 -55 13 -62 13 -71 4z m768 -774 c10
-31 -6 -41 -61 -37 -37 2 -50 7 -52 21 -2 10 3 17 12 17 9 0 16 5 16 10 0 6
18 10 39 10 31 0 41 -4 46 -21z m879 -834 c3 -10 -8 -28 -32 -50 l-37 -34 33
-7 c27 -6 52 -28 52 -47 0 -3 -14 -10 -30 -17 -45 -19 -74 -2 -93 55 -17 48
-14 68 11 98 19 22 87 24 96 2z m-985 -217 c12 -7 21 -22 21 -33 0 -41 13 -47
62 -29 44 17 46 17 75 -4 l30 -21 22 22 c22 22 22 22 37 3 8 -11 14 -27 14
-36 0 -17 -38 -57 -82 -85 -26 -16 -28 -16 -53 3 -15 12 -32 19 -38 17 -7 -2
-24 -6 -38 -9 -21 -5 -29 -15 -37 -48 -6 -24 -11 -63 -11 -88 3 -132 -48 -223
-115 -206 -35 9 -45 32 -53 123 -7 97 -17 123 -43 123 -11 0 -20 -5 -20 -10 0
-6 -11 -15 -24 -21 -42 -19 -50 -49 -36 -122 11 -55 11 -77 -1 -134 l-14 -68
-47 -3 -46 -3 -23 68 c-22 66 -29 156 -15 201 4 11 22 29 40 40 35 20 34 19
52 139 6 39 34 68 42 44 2 -6 12 -11 23 -11 11 0 31 -7 44 -16 23 -15 25 -15
31 2 3 11 14 35 24 55 19 35 19 36 -2 56 -24 25 -19 49 14 63 30 13 141 5 167
-12z m-971 -106 c2 -25 -1 -42 -7 -42 -6 0 -11 -9 -11 -21 0 -11 -21 -47 -47
-79 -38 -47 -54 -59 -77 -59 l-29 -1 7 87 c10 133 52 183 136 163 21 -5 25
-13 28 -48z m200 -19 c-2 -13 -15 -19 -46 -21 -23 -2 -42 1 -42 5 0 19 25 33
58 33 26 0 33 -4 30 -17z m320 -1025 c7 -7 12 -22 12 -34 0 -12 9 -28 21 -35
16 -12 20 -25 21 -76 1 -72 -17 -107 -59 -118 -22 -5 -31 -2 -45 15 -10 12
-18 28 -18 35 0 7 -6 15 -12 17 -17 6 -15 156 1 186 13 24 59 30 79 10z"/>
<path d="M3980 7370 c0 -5 5 -10 10 -10 6 0 10 5 10 10 0 6 -4 10 -10 10 -5 0
-10 -4 -10 -10z"/>
<path d="M10750 7263 c-62 -18 -87 -20 -112 -9 -14 6 -22 0 -35 -25 -10 -19
-36 -51 -57 -73 l-40 -39 -88 7 c-81 6 -90 5 -120 -16 -78 -55 -93 -71 -114
-132 -36 -102 -47 -130 -56 -152 -6 -13 -6 -35 1 -62 12 -42 21 -48 104 -66
80 -18 174 -82 232 -157 22 -29 107 -50 120 -29 10 16 40 12 58 -7 15 -17 35
-90 55 -203 10 -55 -2 -114 -29 -146 -13 -15 -1 -40 33 -70 22 -19 27 -19 59
-7 18 7 42 16 52 19 21 8 22 23 2 30 -8 4 -15 17 -15 30 0 14 -6 24 -15 24 -8
0 -19 16 -25 39 -6 22 -16 41 -22 43 -8 3 -4 12 9 25 11 11 25 27 29 35 5 8
30 29 57 48 35 25 50 43 57 71 6 21 17 45 26 53 8 9 12 21 9 26 -9 15 15 42
32 36 7 -3 13 1 13 9 0 8 4 15 8 15 5 0 17 18 27 40 10 22 21 40 26 40 4 0 17
16 29 36 19 30 22 45 17 96 -4 42 -1 68 8 82 24 39 26 88 5 156 -11 36 -20 75
-20 88 0 12 -4 22 -10 22 -5 0 -21 20 -36 45 l-26 45 -59 0 c-40 0 -59 4 -59
13 0 12 -45 38 -64 36 -6 0 -36 -7 -66 -16z"/>
<path d="M4850 7079 c-19 -4 -53 -12 -75 -17 -22 -5 -52 -14 -67 -20 l-26 -11
15 -53 c20 -74 33 -135 39 -188 2 -25 9 -46 14 -48 6 -2 10 -13 10 -25 0 -12
9 -47 20 -77 11 -30 20 -69 20 -86 0 -17 7 -51 15 -74 8 -23 15 -54 15 -67 0
-14 6 -39 14 -56 32 -75 36 -90 36 -130 0 -37 6 -49 40 -82 22 -21 40 -33 40
-26 0 9 14 12 48 11 26 -2 62 -2 80 -1 l32 1 0 94 c0 52 -4 105 -9 118 -5 13
-16 87 -25 164 -9 76 -23 184 -31 239 -8 55 -19 143 -26 195 -14 115 -15 117
-50 135 -30 16 -74 18 -129 4z"/>
<path d="M4356 7028 c-10 -27 -10 -76 0 -263 7 -126 20 -270 28 -319 9 -49 16
-111 16 -139 0 -31 8 -68 21 -95 19 -39 21 -52 13 -120 -12 -114 -6 -308 12
-364 17 -52 32 -61 78 -52 69 13 83 41 85 167 l2 98 -33 32 c-76 74 -81 86
-76 210 3 101 6 116 31 154 50 78 55 156 28 373 -10 80 -41 262 -53 313 l-9
37 -65 0 c-64 0 -65 0 -78 -32z"/>
<path d="M12850 6816 c0 -2 7 -9 15 -16 12 -10 15 -10 15 4 0 9 -7 16 -15 16
-8 0 -15 -2 -15 -4z"/>
<path d="M7740 6782 c-52 -9 -157 -89 -254 -193 -16 -17 -56 -89 -56 -101 0
-4 -11 -18 -23 -32 -31 -33 -77 -122 -77 -147 0 -11 -11 -42 -25 -69 -14 -27
-25 -58 -25 -68 0 -11 -14 -39 -32 -63 -18 -24 -44 -73 -59 -108 -19 -45 -28
-58 -32 -45 -3 12 -5 6 -6 -13 -1 -22 -6 -33 -16 -33 -14 0 -19 -26 -16 -85
l1 -20 -9 20 -9 20 -7 -20 c-3 -11 -11 -29 -18 -40 -27 -49 -47 -95 -47 -109
0 -10 -6 -13 -15 -10 -11 5 -13 2 -9 -10 3 -9 1 -16 -5 -16 -6 0 -11 -6 -11
-14 0 -8 -13 -28 -28 -44 -22 -24 -28 -40 -28 -71 1 -23 -3 -40 -9 -38 -5 2
-19 -5 -30 -15 -17 -16 -18 -20 -5 -28 12 -8 12 -10 1 -10 -7 0 -11 -6 -7 -15
3 -8 2 -15 -3 -15 -16 0 -42 -51 -44 -85 -2 -19 -6 -37 -10 -41 -4 -4 -7 -18
-7 -30 0 -13 -4 -25 -9 -28 -16 -10 -19 -67 -4 -82 8 -8 11 -14 6 -14 -14 0
-34 -62 -23 -75 5 -6 8 -64 6 -129 -1 -64 1 -119 6 -122 4 -3 3 -15 -2 -28 -5
-13 -5 -39 -1 -58 4 -18 4 -44 0 -56 -5 -14 -4 -22 2 -22 6 0 8 -7 5 -16 -4
-9 -2 -22 3 -28 13 -16 17 -59 7 -75 -5 -8 -4 -16 4 -21 14 -9 -18 -43 -62
-66 -24 -12 -48 -42 -48 -58 0 -3 31 -6 68 -6 63 0 117 -18 101 -34 -21 -21
-206 -26 -194 -6 3 5 -18 7 -45 7 -27 -1 -50 -5 -50 -9 0 -5 -15 -8 -32 -9
-28 0 -30 -2 -13 -9 19 -8 19 -9 -3 -9 -40 -2 -162 30 -177 46 -9 8 -15 33
-15 57 0 27 -6 48 -15 56 -8 7 -15 9 -15 4 0 -5 -5 -2 -11 6 -6 8 -12 11 -15
5 -17 -41 -41 -79 -50 -82 -15 -5 -44 24 -44 44 0 11 7 14 25 11 20 -4 25 -1
25 16 0 37 -23 59 -66 61 -62 3 -64 4 -64 19 0 20 -39 46 -67 46 -13 0 -32 5
-43 12 -15 10 -29 10 -64 0 -65 -17 -87 -5 -42 22 25 15 33 25 27 35 -6 10
-13 10 -28 3 -11 -6 -30 -8 -41 -5 -15 3 -34 -3 -56 -21 -19 -14 -36 -22 -38
-18 -2 4 -41 27 -88 51 -139 71 -301 151 -306 151 -3 0 -49 21 -102 46 -53 25
-128 59 -165 75 -37 17 -96 45 -130 63 -34 19 -80 39 -102 46 -22 6 -49 15
-60 20 -11 5 -38 14 -59 21 -22 6 -54 20 -72 31 -18 11 -37 17 -42 14 -12 -7
-92 32 -92 45 0 6 -6 9 -12 6 -7 -2 -21 3 -31 11 -15 13 -20 14 -26 3 -6 -9
-11 -10 -15 -2 -4 6 -25 9 -47 7 -22 -2 -42 1 -45 5 -3 5 -17 9 -32 9 -15 0
-50 8 -78 19 -29 10 -82 22 -119 26 -72 7 -273 56 -318 76 -15 7 -27 16 -27
20 0 16 47 39 115 55 113 27 116 30 30 37 -54 5 -97 15 -131 32 -55 27 -69 30
-59 15 3 -5 2 -10 -4 -10 -5 0 -13 5 -16 10 -12 20 -54 9 -104 -27 -28 -21
-51 -44 -51 -50 0 -8 -14 -13 -39 -13 -62 0 -103 -12 -108 -30 -3 -10 -21 -26
-41 -35 -21 -10 -49 -24 -64 -32 -35 -18 -49 -17 -41 4 7 17 8 17 -62 -4 -17
-6 -18 -4 -7 10 18 21 7 37 -26 37 -38 1 -62 22 -55 48 6 24 -14 31 -23 8 -13
-34 -35 -25 -56 22 -12 26 -23 40 -25 32 -2 -9 -23 -26 -48 -39 -55 -29 -94
-72 -155 -169 -82 -133 -99 -185 -120 -362 -12 -100 -3 -218 22 -276 6 -16 14
-74 17 -130 6 -93 9 -105 42 -160 20 -32 40 -75 44 -94 11 -51 76 -183 135
-275 60 -91 147 -188 154 -171 2 6 2 -3 -1 -21 -3 -21 4 -56 22 -105 22 -59
39 -83 85 -128 32 -31 90 -72 129 -91 55 -28 81 -49 110 -88 23 -31 37 -59 34
-70 -2 -10 6 -31 19 -47 32 -39 123 -176 143 -215 30 -57 87 -129 97 -123 6 4
6 9 2 13 -5 3 -7 29 -4 56 l5 50 22 -52 c12 -29 18 -53 13 -53 -14 0 10 -70
54 -160 74 -148 169 -283 207 -295 10 -4 19 -15 19 -25 0 -10 4 -22 10 -25 6
-3 10 -1 10 4 0 6 5 11 11 11 7 0 9 -9 5 -23 -4 -19 6 -36 54 -88 33 -35 60
-68 60 -72 0 -5 4 -6 9 -3 5 3 12 -1 15 -10 4 -10 2 -13 -7 -7 -12 7 12 -34
38 -65 8 -9 22 -26 31 -37 8 -11 12 -14 8 -6 -5 9 -3 12 5 7 6 -4 9 -11 6 -16
-6 -10 60 -105 103 -150 13 -14 44 -54 69 -90 63 -93 91 -133 102 -146 5 -6
12 -21 16 -35 4 -13 20 -45 36 -70 16 -25 29 -49 29 -53 0 -17 123 -188 170
-236 47 -48 54 -52 86 -47 31 5 40 1 74 -31 20 -20 43 -42 50 -49 6 -6 48 -48
91 -93 77 -79 79 -83 70 -114 -5 -17 -12 -65 -16 -106 -4 -41 -10 -79 -13 -85
-4 -5 -11 -55 -17 -109 -6 -55 -15 -101 -21 -103 -13 -4 -29 177 -29 324 0 98
-8 117 -46 111 l-24 -3 0 -323 c0 -260 2 -319 13 -305 6 9 12 21 12 26 0 5 17
33 38 63 l37 54 135 -1 c74 -1 144 -4 155 -7 15 -5 21 -17 23 -47 4 -57 -18
-68 -143 -70 -113 -2 -167 -16 -207 -53 -28 -26 -37 -52 -18 -52 6 0 10 -7 10
-16 0 -14 3 -13 18 3 38 44 245 62 499 44 92 -6 269 -16 393 -21 273 -12 753
-37 835 -44 33 -3 251 -9 485 -12 378 -6 595 -11 610 -15 3 -1 13 0 24 1 12 1
16 -3 11 -12 -3 -7 0 -5 9 6 9 11 20 15 27 10 7 -4 47 -9 89 -11 41 -1 109 -5
152 -7 71 -4 77 -3 82 17 6 20 8 20 19 6 9 -11 30 -16 79 -17 38 0 73 -4 80
-8 6 -4 35 -9 62 -10 28 -1 121 -6 206 -11 185 -9 514 -8 588 2 35 5 52 4 52
-3 0 -6 10 -9 22 -7 55 11 731 21 1036 15 13 0 22 -6 22 -16 0 -12 5 -14 18
-8 22 10 164 12 149 2 -7 -5 -3 -8 11 -8 14 0 26 -8 32 -22 8 -21 9 -21 10 -3
1 18 2 17 13 -5 14 -29 37 -38 37 -14 0 31 -33 85 -61 99 -15 8 -51 20 -79 26
-52 11 -53 12 -50 69 4 87 63 106 130 43 34 -32 43 -51 60 -117 19 -74 20
-122 5 -218 l-4 -28 113 0 114 0 6 35 c10 51 -1 588 -13 665 -6 36 -11 106
-11 155 l0 90 55 60 c50 54 60 73 56 98 -1 5 3 6 9 2 5 -3 10 -2 10 2 0 10 37
34 61 38 10 2 35 15 55 29 20 13 42 22 49 20 19 -8 74 62 106 133 18 40 33 62
40 57 6 -3 42 24 82 64 40 39 95 92 122 117 28 26 43 44 35 40 -16 -7 6 13 65
59 32 26 35 31 21 42 -15 10 -14 13 6 26 13 8 62 34 109 56 93 45 176 113 225
184 16 24 52 70 80 104 28 34 76 97 106 140 31 43 67 91 82 107 14 15 41 48
60 73 33 43 92 112 165 194 18 19 39 49 48 65 9 17 43 70 77 119 39 58 56 91
48 94 -8 2 45 64 122 142 106 108 142 153 170 208 36 71 72 106 176 169 51 31
127 112 143 153 8 19 18 54 22 78 4 24 24 80 45 125 59 128 105 278 81 263
-21 -13 -11 6 46 87 48 68 58 89 59 127 0 25 7 59 14 77 12 27 12 42 0 95 -7
35 -16 88 -20 118 -10 88 -67 205 -132 275 -25 27 -64 69 -85 91 -50 54 -86
63 -120 30 -29 -29 -119 -51 -206 -51 -42 0 -56 -3 -52 -12 17 -41 16 -45 -4
-20 -12 15 -28 27 -36 27 -22 0 -39 28 -26 44 10 11 8 15 -6 19 -75 22 -102
17 -82 -13 5 -8 9 -10 9 -5 0 12 20 -16 20 -28 0 -5 -16 -7 -35 -6 -19 2 -40
-2 -46 -8 -10 -10 -15 -9 -24 4 -13 18 -51 10 -39 -8 3 -6 -5 -3 -20 6 -30 20
-142 32 -131 15 4 -7 -2 -9 -19 -4 -26 6 -37 -8 -16 -21 14 -8 3 -25 -16 -25
-8 0 -19 11 -24 24 -10 28 -26 40 -34 27 -4 -5 -2 -12 4 -16 13 -8 13 -35 0
-35 -5 0 -10 7 -10 16 0 8 -4 13 -9 9 -13 -7 -41 23 -41 44 0 10 -7 24 -15 31
-15 12 -55 5 -55 -11 0 -5 -6 -9 -14 -9 -13 0 -86 103 -86 122 0 19 -40 86
-55 91 -8 4 -15 18 -15 32 0 18 -5 25 -19 25 -11 0 -23 5 -26 10 -13 21 -49 8
-103 -37 -31 -27 -65 -55 -76 -63 -28 -22 -128 -110 -148 -131 -24 -25 -22
-31 7 -23 34 8 195 -5 195 -17 0 -5 -7 -9 -15 -9 -18 0 -35 -39 -35 -80 0 -16
-4 -31 -9 -34 -4 -3 -73 -15 -152 -28 -79 -12 -146 -25 -149 -28 -3 -4 -43
-10 -90 -13 -130 -9 -404 -72 -393 -90 3 -5 -8 -6 -26 -2 -29 6 -46 -8 -20
-17 6 -2 -11 -4 -38 -6 -61 -2 -103 -11 -103 -22 0 -4 -11 -7 -26 -5 -23 2
-113 -13 -174 -30 -14 -4 -43 -10 -65 -15 -50 -10 -189 -60 -193 -70 -2 -5
-12 -5 -24 -2 -17 4 -19 1 -14 -15 5 -17 2 -19 -21 -16 -19 3 -35 -3 -50 -16
-15 -14 -35 -21 -64 -21 -51 0 -143 -26 -159 -45 -7 -8 -19 -15 -26 -15 -8 0
-14 -7 -14 -15 0 -8 -9 -15 -20 -15 -25 0 -25 -6 4 -71 13 -30 26 -70 29 -89
l5 -35 -11 30 c-7 17 -25 57 -42 90 l-31 60 -49 0 c-28 0 -56 4 -64 9 -11 7
-13 5 -7 -10 21 -51 21 -50 4 -36 -9 7 -31 12 -49 11 -26 -2 -46 6 -82 34 -55
42 -65 44 -110 21 l-31 -17 34 -11 c18 -6 36 -17 38 -25 3 -8 0 -11 -5 -8 -6
4 -13 -6 -16 -21 -6 -32 -38 -50 -79 -46 -19 2 -31 -3 -38 -16 -8 -15 -15 -18
-34 -10 -13 5 -26 6 -29 3 -3 -3 -16 2 -29 11 -24 17 -39 21 -37 9 1 -5 -2
-18 -6 -31 -7 -22 -9 -21 -45 18 -40 43 -60 51 -60 22 0 -27 -20 -42 -58 -42
-26 0 -35 -5 -39 -21 -4 -14 -10 -18 -22 -12 -9 4 -37 7 -63 8 -57 0 -57 10 3
89 21 28 39 56 39 63 0 17 27 29 83 37 43 7 47 9 47 35 0 19 -11 39 -35 62
-33 32 -48 79 -25 79 6 0 10 16 10 36 0 19 5 44 10 55 6 10 13 49 17 87 3 40
15 86 30 114 46 93 57 167 58 378 1 195 9 290 27 301 6 4 7 14 1 25 -10 22 -1
154 9 139 4 -6 5 -23 4 -38 -4 -34 13 -47 21 -17 4 16 8 18 14 9 15 -24 18 -4
7 46 -12 59 -27 83 -39 63 -6 -9 -9 -5 -10 12 -1 17 -3 19 -6 8 -2 -10 -12
-18 -22 -18 -14 0 -16 8 -14 38 l3 37 -14 -30 c-14 -29 -14 -28 -13 25 0 30 2
48 4 38 2 -9 10 -18 17 -21 9 -4 11 4 8 24 -4 29 -5 29 -29 14 -23 -16 -38
-14 -38 5 0 10 -53 60 -63 60 -4 0 -15 12 -25 28 -17 25 -18 25 -13 4 3 -18 1
-22 -11 -18 -13 5 -14 4 -3 -9 7 -9 11 -18 8 -20 -7 -7 -32 23 -34 42 -2 10 3
13 14 9 13 -5 12 -2 -2 9 -13 10 -15 15 -6 15 9 0 8 6 -5 20 -10 11 -13 20 -7
20 7 0 12 -4 12 -10 0 -5 7 -10 15 -10 8 0 15 -4 15 -10 0 -5 5 -10 10 -10 19
0 10 17 -16 28 -14 7 -22 17 -18 23 4 7 1 10 -7 7 -14 -5 -56 40 -51 55 1 4
-12 14 -29 21 -16 7 -30 16 -30 19 1 4 -2 7 -6 8 -5 1 -16 5 -25 10 -15 8 -17
6 -16 -15 3 -31 62 -63 84 -46 10 9 12 7 9 -13 -4 -17 1 -27 16 -33 20 -9 20
-10 3 -24 -10 -8 -15 -10 -11 -3 7 11 -58 73 -78 73 -5 0 -30 20 -54 45 -31
32 -48 42 -56 35 -8 -7 -18 -3 -31 13 l-19 22 23 -19 c26 -23 28 -15 5 21 -12
18 -13 24 -5 19 11 -7 12 -4 2 13 -6 12 -15 19 -21 16 -5 -4 -9 -1 -9 6 0 7
-16 27 -35 46 -20 20 -32 39 -29 46 4 7 4 9 -1 5 -4 -4 -14 0 -21 10 -9 12
-13 13 -14 4 0 -16 -50 41 -50 57 0 6 6 11 13 11 7 0 8 3 2 8 -5 4 -11 18 -13
32 -1 14 -10 30 -20 37 -9 7 -22 16 -27 21 -17 14 -36 2 -26 -16 4 -9 11 -30
15 -46 6 -26 5 -28 -8 -17 -9 8 -16 21 -16 30 -1 9 -17 28 -37 44 -33 24 -38
26 -46 11 -8 -13 -14 -10 -43 21 -19 21 -34 43 -34 49 0 6 -5 4 -10 -4 -8 -12
-10 -12 -10 -1 0 8 -3 12 -6 8 -6 -5 37 -95 60 -125 6 -8 11 -27 12 -42 2 -21
-1 -27 -12 -23 -18 7 -19 -21 -1 -36 10 -7 17 -7 24 0 10 10 28 -9 58 -61 11
-18 -40 14 -84 53 -17 15 -36 27 -43 28 -7 0 -3 5 10 11 27 13 28 23 5 40 -18
13 -23 23 -31 70 -3 18 -9 25 -18 21 -8 -3 -14 1 -14 10 0 9 -6 20 -14 24 -16
10 -46 66 -46 88 0 9 -11 28 -25 43 -15 15 -23 20 -20 10 5 -13 2 -15 -14 -11
-12 3 -21 10 -21 15 0 5 5 6 10 3 13 -8 13 5 0 25 -7 12 -14 12 -27 4 -21 -13
-46 -7 -37 8 4 7 2 8 -4 4 -7 -4 -18 -4 -24 1 -18 11 -87 10 -80 -1 3 -5 -5
-6 -19 -2 -19 6 -77 7 -164 3 -5 0 -21 3 -35 7 -20 6 -22 5 -10 -4 17 -13 -1
-11 -125 15 l-70 14 72 -2 c40 -2 67 1 59 5 -16 9 -151 16 -186 10z m6 -37
c-11 -8 -27 -15 -35 -14 -9 0 -2 7 14 14 39 18 45 18 21 0z m179 -15 c3 -6 -1
-7 -9 -4 -18 7 -21 14 -7 14 6 0 13 -4 16 -10z m-199 -51 c-15 -12 -30 -18
-33 -15 -8 8 27 35 46 36 7 0 2 -10 -13 -21z m111 15 c-3 -3 -12 -4 -19 -1 -8
3 -5 6 6 6 11 1 17 -2 13 -5z m243 -40 c0 -2 -16 4 -35 13 -19 9 -32 20 -29
25 5 7 64 -27 64 -38z m195 -164 c3 -6 -1 -7 -9 -4 -18 7 -21 14 -7 14 6 0 13
-4 16 -10z m256 -8 c-7 -2 -18 1 -23 6 -8 8 -4 9 13 5 13 -4 18 -8 10 -11z
m117 -12 c15 0 15 -2 2 -10 -10 -6 -11 -10 -2 -10 6 0 12 -10 11 -22 0 -13 -3
-17 -6 -10 -2 6 -8 10 -12 8 -4 -3 -7 3 -7 12 -1 9 -3 24 -6 32 -3 8 -3 12 -1
8 3 -5 12 -8 21 -8z m153 -4 c5 3 9 -5 9 -18 0 -17 -3 -19 -9 -9 -5 7 -14 10
-20 7 -13 -8 -14 -4 -4 20 4 11 8 13 11 6 2 -7 8 -10 13 -6z m-431 -49 c0 -4
-16 4 -35 19 -45 34 -45 41 0 12 19 -13 35 -27 35 -31z m144 27 c3 -8 2 -12
-4 -9 -6 3 -10 10 -10 16 0 14 7 11 14 -7z m-77 -32 c17 -12 35 -22 40 -22 4
0 22 -11 38 -25 17 -14 23 -22 14 -19 -27 9 -32 -14 -7 -28 13 -7 26 -12 29
-13 11 0 61 -65 50 -65 -6 0 -11 5 -11 10 0 6 -5 10 -10 10 -6 0 -16 5 -23 10
-28 24 -160 119 -171 123 -6 2 -8 7 -5 11 3 3 23 -7 45 -23 27 -20 44 -27 54
-21 11 7 9 11 -10 18 -14 5 -33 19 -44 31 -10 11 -22 18 -27 16 -4 -3 -10 -1
-13 4 -10 16 18 7 51 -17z m373 -13 c0 -6 -4 -7 -10 -4 -5 3 -10 11 -10 16 0
6 5 7 10 4 6 -3 10 -11 10 -16z m-120 -3 c0 -3 -4 -8 -10 -11 -5 -3 -10 -1
-10 4 0 6 5 11 10 11 6 0 10 -2 10 -4z m59 -57 c-6 -4 -14 -12 -18 -18 -4 -6
-12 2 -18 19 -8 21 -8 28 0 23 7 -4 8 0 3 13 -6 15 -3 14 19 -6 17 -16 21 -26
14 -31z m-419 27 c0 -3 -4 -8 -10 -11 -5 -3 -10 -1 -10 4 0 6 5 11 10 11 6 0
10 -2 10 -4z m220 -132 c30 -13 46 -23 35 -24 -20 0 -220 94 -229 108 -3 5 27
-7 67 -26 40 -19 97 -45 127 -58z m247 38 c7 -7 13 -19 13 -25 0 -19 -37 26
-44 53 -6 23 -6 24 5 5 7 -11 19 -26 26 -33z m-337 -48 c0 -7 -4 -16 -10 -19
-6 -3 -7 1 -4 10 4 8 0 23 -7 33 -13 15 -12 16 4 3 9 -7 17 -19 17 -27z m145
-44 c10 -11 16 -20 13 -20 -3 0 -13 9 -23 20 -10 11 -16 20 -13 20 3 0 13 -9
23 -20z m-208 -12 c-3 -8 -6 -5 -6 6 -1 11 2 17 5 13 3 -3 4 -12 1 -19z m86
-71 c49 -32 58 -41 31 -30 -16 6 -114 70 -124 80 -9 10 43 -19 93 -50z m582
-19 c5 4 5 2 2 -5 -4 -6 -1 -14 5 -16 8 -3 8 -6 2 -6 -6 -1 -19 9 -30 21 -12
14 -13 18 -3 10 9 -6 20 -8 24 -4z m-55 -40 c0 -6 -6 -5 -15 2 -8 7 -15 14
-15 16 0 2 7 1 15 -2 8 -4 15 -11 15 -16z m70 -52 c0 -2 -8 -10 -17 -17 -16
-13 -17 -12 -4 4 13 16 21 21 21 13z m268 -139 c2 -9 -1 -17 -7 -17 -6 0 -7 7
-4 17 4 11 3 14 -5 9 -7 -4 -12 -2 -12 4 0 18 25 6 28 -13z m-48 -69 c0 -12
-6 -9 -26 13 -19 22 -19 22 4 8 12 -8 22 -17 22 -21z m30 28 c0 -3 -4 -8 -10
-11 -5 -3 -10 -1 -10 4 0 6 5 11 10 11 6 0 10 -2 10 -4z m87 -38 c-3 -8 -6 -5
-6 6 -1 11 2 17 5 13 3 -3 4 -12 1 -19z m-70 -3 c-7 -7 -14 -9 -15 -4 -2 5 -8
7 -13 3 -5 -3 -9 -1 -9 4 0 5 11 10 24 10 19 0 22 -3 13 -13z m-77 -46 c0 -6
7 -8 17 -5 10 4 15 4 11 1 -6 -6 12 -32 52 -75 24 -26 50 -89 40 -95 -6 -3
-10 3 -10 15 0 12 -4 18 -10 15 -6 -3 -7 1 -4 9 4 11 0 16 -10 16 -9 0 -15 3
-14 8 4 20 -25 64 -56 84 -35 23 -46 38 -26 38 6 0 10 -5 10 -11z m0 -41 c0
-5 -4 -8 -10 -8 -5 0 -10 5 -10 10 0 6 -6 10 -13 10 -8 0 -14 6 -14 14 0 12 5
11 23 -2 13 -9 24 -20 24 -24z m-33 -4 c-3 -3 -12 -4 -19 -1 -8 3 -5 6 6 6 11
1 17 -2 13 -5z m170 -16 c-3 -8 -6 -5 -6 6 -1 11 2 17 5 13 3 -3 4 -12 1 -19z
m82 -5 c0 -16 -3 -22 -6 -15 -2 6 -9 12 -14 12 -6 0 -7 -6 -3 -12 4 -7 3 -9
-1 -5 -15 14 -15 39 1 33 8 -3 14 -1 14 4 0 6 2 10 5 10 3 0 5 -12 4 -27z
m-214 -14 c11 -16 1 -19 -13 -3 -7 8 -8 14 -3 14 5 0 13 -5 16 -11z m45 -2 c0
-8 -7 -14 -15 -14 -25 0 -17 17 13 26 1 1 2 -5 2 -12z m147 -194 c1 -79 0 -83
-8 -43 -8 37 -4 130 5 130 1 0 3 -39 3 -87z m-5736 -66 c-13 -13 -14 5 -3 43
l7 25 3 -29 c2 -16 -1 -33 -7 -39z m5696 31 c-3 -8 -6 -5 -6 6 -1 11 2 17 5
13 3 -3 4 -12 1 -19z m20 -40 c-3 -7 -5 -2 -5 12 0 14 2 19 5 13 2 -7 2 -19 0
-25z m-5857 -9 c0 -5 -4 -9 -10 -9 -5 0 -10 7 -10 16 0 8 5 12 10 9 6 -3 10
-10 10 -16z m136 -108 c-1 -107 -8 -130 -21 -71 -4 18 -19 37 -40 50 -53 33
-63 76 -15 67 17 -4 30 -2 30 3 0 6 -4 10 -10 10 -5 0 -10 7 -10 15 0 18 5 18
31 4 17 -9 21 -7 26 10 3 12 6 21 8 21 1 0 1 -49 1 -109z m5723 -111 c-1 -23
-2 -23 -9 5 -20 73 -21 82 -6 50 9 -16 15 -41 15 -55z m-15 -55 c-4 -8 -8 -15
-10 -15 -2 0 -4 7 -4 15 0 8 4 15 10 15 5 0 7 -7 4 -15z m15 -101 c-5 -38 -10
-85 -10 -104 1 -26 -2 -31 -9 -20 -8 12 -10 10 -10 -10 0 -14 -7 -36 -16 -50
-12 -19 -14 -21 -10 -5 2 11 12 56 21 100 21 98 38 165 42 161 1 -1 -2 -34 -8
-72z m3491 -124 c0 -5 -4 -10 -10 -10 -5 0 -10 5 -10 10 0 6 5 10 10 10 6 0
10 -4 10 -10z m-8316 -928 c41 -52 67 -73 81 -65 23 13 171 -37 238 -80 31
-20 75 -53 99 -74 72 -62 78 -67 78 -55 0 19 -103 123 -157 158 -67 42 -168
94 -186 94 -7 0 -22 7 -33 16 -18 14 -14 15 41 9 171 -19 545 -103 608 -138
22 -12 51 -28 66 -36 14 -8 41 -17 60 -20 26 -5 39 -15 53 -41 35 -64 62 -83
121 -88 39 -3 61 0 79 12 23 15 27 15 49 -1 64 -47 86 -52 141 -29 39 17 52
11 63 -24 4 -14 19 -40 32 -58 63 -85 166 -97 240 -30 12 11 31 18 44 16 23
-3 23 -5 19 -98 -2 -52 -5 -124 -5 -160 l0 -65 76 4 c107 4 149 -10 208 -69
l50 -50 84 0 c77 0 107 -9 107 -31 0 -4 -12 -10 -27 -14 -16 -3 -37 -14 -48
-23 -32 -26 -76 -88 -68 -95 3 -4 1 -7 -6 -7 -6 0 -16 11 -21 25 -5 14 -14 25
-19 25 -6 0 -15 17 -21 38 -14 51 -74 130 -105 138 -33 8 -56 -1 -49 -21 7
-18 -21 -21 -33 -2 -4 6 -17 19 -27 27 -18 14 -19 13 -13 -4 4 -11 3 -22 -2
-25 -5 -4 -3 -22 5 -46 11 -32 12 -49 3 -82 -6 -24 -9 -56 -6 -73 8 -38 1 -38
-43 4 -19 19 -70 53 -114 75 -43 22 -103 59 -133 81 -73 56 -104 66 -156 50
-22 -6 -52 -19 -66 -28 l-25 -17 29 -6 30 -7 -31 -1 c-17 0 -37 -8 -44 -16
-14 -17 -14 -17 59 -35 24 -7 51 -19 60 -28 15 -14 14 -15 -4 -10 -11 3 -28 9
-37 13 -14 5 -18 2 -18 -14 0 -24 -18 -28 -26 -6 -4 9 -18 15 -38 14 -30 0
-30 -1 -7 -10 17 -7 21 -13 14 -20 -16 -16 -64 1 -74 28 -5 13 -15 23 -21 22
-7 -1 -21 2 -32 6 -11 5 -32 3 -50 -3 -45 -17 -45 -17 -41 28 2 22 -1 42 -6
45 -5 3 -6 -1 -3 -10 5 -13 2 -15 -22 -9 -16 4 -36 12 -44 19 -19 15 -85 45
-99 45 -16 0 -14 8 9 40 14 20 19 37 14 54 -5 22 -11 25 -50 23 -24 -1 -44 -6
-44 -11 0 -4 -8 -5 -17 -1 -10 4 -26 7 -36 7 -29 -1 -9 17 33 29 22 7 40 16
40 20 0 24 -65 60 -131 73 -36 6 -68 31 -100 77 -10 13 -21 21 -25 16 -4 -4
-2 -13 4 -19 20 -20 13 -30 -10 -14 -28 20 -44 21 -28 1 21 -25 -12 -19 -55
11 -21 14 -43 23 -50 20 -7 -2 -21 4 -30 14 -10 11 -12 19 -6 21 7 3 5 17 -7
41 -18 39 -58 64 -89 54 -25 -7 -123 -8 -213 -1 -41 3 -70 2 -63 -2 6 -4 -11
-8 -38 -8 -54 0 -68 19 -21 29 15 3 91 9 170 12 120 6 142 9 137 22 -4 11 0
13 15 9 17 -4 19 -3 9 9 -13 16 -46 35 -99 59 -19 8 -53 24 -75 35 -44 21
-206 53 -264 52 -36 -1 -70 12 -61 22 3 2 46 7 95 11 50 3 105 8 123 11 l33 5
-22 37 c-33 55 -42 63 -85 68 -21 2 -61 8 -89 13 -45 8 -40 9 44 8 69 0 96 -4
105 -15z m83 2 c-3 -3 -12 -4 -19 -1 -8 3 -5 6 6 6 11 1 17 -2 13 -5z m5280
-293 c-8 -55 -17 -86 -26 -89 -9 -3 -12 0 -8 10 3 8 10 69 17 134 6 65 14 126
18 134 12 28 12 -104 -1 -189z m-1067 96 c0 -6 -9 0 -20 13 -11 13 -20 25 -20
28 0 3 9 -3 20 -13 11 -10 20 -23 20 -28z m2628 -36 c-1 -6 -32 -29 -68 -53
-35 -24 -73 -59 -84 -78 l-21 -35 30 23 c17 13 46 31 65 39 78 34 113 36 88 6
-19 -23 1 -28 36 -9 21 11 42 15 55 11 27 -8 27 -21 0 -28 -16 -4 -19 -11 -14
-26 5 -15 -1 -24 -24 -36 -39 -20 -39 -26 -1 -18 18 3 30 1 30 -5 0 -5 -39
-17 -87 -27 -146 -28 -158 -31 -178 -42 -19 -11 -19 -12 5 -17 14 -3 45 -8 70
-11 25 -3 52 -10 60 -15 24 -15 -75 -12 -176 5 -48 9 -102 13 -118 10 -80 -16
-94 -25 -130 -86 -20 -33 -36 -70 -36 -82 0 -18 -2 -19 -10 -7 -7 12 -10 11
-15 -5 -18 -55 -24 -61 -25 -25 l-1 35 -15 -28 c-11 -20 -19 -25 -30 -19 -8 5
-28 6 -44 4 l-30 -4 50 -41 c49 -40 67 -68 55 -87 -9 -15 -35 -12 -41 4 -3 7
-23 21 -44 31 -70 31 -125 6 -143 -65 -6 -24 -45 -50 -75 -50 -12 0 -12 3 -2
15 7 8 18 15 25 15 7 0 15 7 19 15 7 18 -7 19 -51 3 -18 -7 -35 -20 -38 -29
-4 -11 -13 -15 -25 -12 -11 3 -20 0 -20 -6 0 -6 -15 -9 -40 -7 -50 5 -57 -5
-28 -44 24 -33 63 -49 80 -32 8 8 3 13 -15 17 -26 7 -43 30 -28 39 8 5 76 -16
87 -27 4 -4 18 -7 31 -7 14 0 23 -6 23 -16 0 -12 -7 -14 -30 -9 -19 4 -30 3
-30 -4 0 -6 12 -11 26 -11 21 0 25 -4 22 -22 -2 -17 -9 -23 -25 -22 -13 0 -23
-3 -23 -8 0 -4 9 -8 20 -8 11 0 20 -4 20 -9 0 -23 -14 -41 -31 -41 -26 0 -24
-15 6 -38 25 -20 25 -21 7 -34 -13 -8 -22 -31 -27 -66 -6 -48 -9 -52 -33 -51
-15 1 -39 4 -54 8 -42 9 -20 35 35 40 4 1 7 8 7 16 0 8 7 15 16 15 10 0 0 15
-26 40 -34 32 -45 38 -56 29 -11 -9 -14 -8 -14 5 0 12 -6 15 -24 10 -20 -5
-23 -2 -22 18 0 13 6 23 11 23 6 0 19 6 30 12 31 18 11 26 -29 12 -44 -16 -56
-6 -29 24 22 24 20 57 -3 57 -8 0 -23 -14 -32 -31 -33 -59 -53 -78 -90 -85
-20 -4 -42 -11 -49 -16 -6 -5 -20 -8 -30 -6 -13 2 -17 -3 -16 -19 2 -13 -2
-23 -7 -23 -6 0 -10 -7 -10 -16 0 -9 5 -12 12 -8 7 4 8 3 4 -4 -4 -6 -13 -9
-21 -6 -7 3 -24 0 -37 -7 -21 -11 -22 -11 -9 5 8 9 10 20 6 24 -4 4 -10 1 -12
-5 -3 -7 -9 -13 -15 -13 -6 0 -7 8 -4 17 4 9 1 20 -6 24 -9 6 -9 11 1 23 17
20 8 33 -29 41 -17 4 -30 10 -30 15 0 4 -9 10 -20 13 -17 4 -18 8 -7 36 6 16
8 33 4 37 -11 12 -45 -26 -52 -57 -8 -35 -21 -37 -29 -5 -9 35 8 70 43 95 30
22 46 24 184 22 36 -1 47 3 47 14 0 9 12 21 28 27 15 7 42 25 60 40 22 19 44
28 66 28 18 0 47 3 63 6 23 4 37 0 61 -21 24 -20 36 -24 48 -17 31 17 -59 55
-131 56 -51 1 -71 -5 -133 -37 -55 -29 -92 -40 -155 -48 -116 -15 -161 -40
-206 -116 -61 -103 -74 -127 -92 -165 l-18 -38 50 -21 c27 -12 49 -26 49 -31
0 -10 -71 -4 -109 9 -11 4 -10 1 4 -10 11 -9 16 -17 12 -17 -12 0 -49 21 -65
37 -7 7 -20 13 -28 13 -8 0 -14 7 -14 15 0 17 28 13 89 -11 49 -20 53 -16 6 7
-22 10 -33 19 -24 19 10 0 19 12 23 30 3 17 17 45 30 63 13 18 41 64 61 102
21 39 48 83 61 98 13 16 24 34 23 40 0 8 -2 8 -6 -1 -2 -6 -8 -10 -13 -7 -18
11 -95 -41 -116 -79 -16 -27 -33 -43 -60 -52 -39 -13 -57 -31 -49 -51 2 -7 -5
-15 -16 -18 -29 -10 -36 3 -12 20 11 8 24 26 27 40 5 19 13 25 35 25 32 0 47
23 26 40 -10 8 -24 -2 -63 -46 -30 -34 -55 -53 -62 -49 -8 5 -4 15 12 33 19
21 20 24 5 19 -10 -4 -25 -7 -33 -7 -9 0 -14 -12 -14 -36 0 -31 3 -35 20 -29
22 7 26 -5 8 -23 -9 -9 -8 -12 8 -12 11 0 25 -5 30 -10 6 -6 29 -11 52 -13 53
-3 49 -19 -9 -31 -37 -7 -41 -10 -23 -17 29 -10 44 -33 18 -26 -11 3 -48 12
-84 21 -36 8 -151 36 -257 62 l-192 46 21 29 c22 29 38 37 38 19 0 -14 49 -8
63 8 8 10 8 18 -1 32 -9 14 -8 21 3 30 8 7 15 22 15 35 0 24 56 108 113 170
20 22 37 44 37 49 0 18 104 148 153 190 l50 45 39 -39 c61 -60 84 -66 202 -52
145 16 169 28 196 99 18 48 40 144 40 176 0 4 4 7 9 7 6 0 7 -16 4 -35 -3 -21
-1 -35 5 -35 9 0 180 34 230 45 12 3 22 1 22 -5 0 -5 -9 -10 -20 -10 -51 0
-100 -55 -100 -114 0 -13 -7 -29 -15 -36 -37 -30 -1 -57 61 -46 24 5 38 16 49
36 9 17 22 30 30 30 18 0 41 43 50 92 5 29 3 38 -11 46 -16 9 -16 10 2 16 10
3 60 10 110 16 49 5 115 18 146 29 90 31 202 49 368 61 300 20 413 23 408 11z
m-5628 -61 c0 -5 -7 -10 -15 -10 -8 0 -15 5 -15 10 0 6 7 10 15 10 8 0 15 -4
15 -10z m2983 -17 c-7 -2 -21 -2 -30 0 -10 3 -4 5 12 5 17 0 24 -2 18 -5z
m-1551 -78 c0 -5 -5 -11 -11 -13 -6 -2 -11 4 -11 13 0 9 5 15 11 13 6 -2 11
-8 11 -13z m-1143 -6 c17 -6 31 -15 31 -19 0 -15 -63 -30 -97 -24 -32 6 -47
24 -19 24 8 0 16 7 20 15 6 18 22 19 65 4z m1201 -20 c0 -11 -3 -11 -24 -3
-23 9 -20 23 4 17 11 -3 20 -9 20 -14z m-2403 -89 c18 -16 40 -30 47 -30 9 0
12 -7 9 -20 -9 -33 -67 -27 -106 11 -28 28 -29 31 -10 26 19 -4 21 -2 13 13
-8 15 -5 30 8 30 2 0 20 -13 39 -30z m273 -220 c0 -5 -5 -10 -11 -10 -5 0 -7
5 -4 10 3 6 8 10 11 10 2 0 4 -4 4 -10z m60 0 c0 -12 -8 -12 -35 0 -18 8 -17
9 8 9 15 1 27 -3 27 -9z m-180 -39 c0 -14 -37 -24 -52 -15 -9 6 -5 10 12 15
36 10 40 10 40 0z m3960 -11 c0 -5 -7 -10 -16 -10 -8 0 -12 5 -9 10 3 6 10 10
16 10 5 0 9 -4 9 -10z m-3655 -68 c-8 -8 -25 10 -19 20 4 6 9 5 15 -3 4 -7 6
-15 4 -17z m596 -14 c40 -14 109 -68 109 -85 0 -20 -10 -16 -40 17 -20 21 -37
30 -60 30 -24 0 -31 -4 -26 -15 8 -21 -8 -19 -29 5 -10 11 -24 20 -32 20 -19
0 -16 28 5 33 29 8 38 7 73 -5z m-636 -28 c3 -5 -3 -10 -15 -10 -12 0 -18 5
-15 10 3 6 10 10 15 10 5 0 12 -4 15 -10z m45 0 c0 -5 -4 -10 -10 -10 -5 0 -7
-7 -4 -15 4 -10 0 -15 -15 -15 -21 0 -21 1 -5 25 17 25 34 33 34 15z m1866
-11 c8 -14 -30 -10 -51 4 -16 13 -15 14 14 9 17 -2 34 -8 37 -13z m-1956 -9
c0 -5 -4 -10 -10 -10 -5 0 -10 5 -10 10 0 6 5 10 10 10 6 0 10 -4 10 -10z
m730 -68 c0 -14 -2 -14 -14 -2 -8 8 -17 26 -20 40 l-7 25 20 -24 c12 -13 21
-30 21 -39z m-801 4 c-15 -33 4 -66 37 -66 14 0 22 -4 19 -10 -18 -29 -125 10
-125 45 0 15 48 54 67 55 10 0 10 -6 2 -24z m755 3 c-6 -11 -24 -2 -24 11 0 5
7 7 15 4 8 -4 12 -10 9 -15z m479 -11 c6 -21 2 -36 -7 -27 -10 11 -16 49 -8
49 5 0 12 -10 15 -22z m4217 12 c0 -5 -4 -10 -10 -10 -5 0 -10 5 -10 10 0 6 5
10 10 10 6 0 10 -4 10 -10z m-4970 -20 c0 -5 -5 -10 -11 -10 -5 0 -7 5 -4 10
3 6 8 10 11 10 2 0 4 -4 4 -10z m4917 -6 c-3 -3 -12 -4 -19 -1 -8 3 -5 6 6 6
11 1 17 -2 13 -5z m-3652 -64 c3 -5 1 -10 -4 -10 -6 0 -11 5 -11 10 0 6 2 10
4 10 3 0 8 -4 11 -10z m-626 -46 c25 -31 27 -54 6 -54 -8 0 -15 7 -15 15 0 8
-9 24 -20 35 -24 24 -25 30 -6 30 8 0 24 -12 35 -26z m3411 -18 c-8 -8 -26
-17 -40 -20 l-25 -7 24 20 c27 25 66 31 41 7z m-2720 -46 c0 -5 -4 -10 -10
-10 -5 0 -10 5 -10 10 0 6 5 10 10 10 6 0 10 -4 10 -10z m2779 -62 c-12 -24
-24 -37 -26 -31 -3 7 6 31 18 54 30 53 37 34 8 -23z m-433 -67 c241 -46 362
-63 375 -56 13 9 79 -6 79 -17 0 -9 -52 -6 -205 14 -91 11 -476 85 -483 93
-10 10 28 4 234 -34z m954 29 c0 -5 -5 -10 -11 -10 -5 0 -7 5 -4 10 3 6 8 10
11 10 2 0 4 -4 4 -10z m90 -4 c0 -2 -7 -7 -16 -10 -8 -3 -12 -2 -9 4 6 10 25
14 25 6z m-3326 -22 c3 -8 2 -12 -4 -9 -6 3 -10 10 -10 16 0 14 7 11 14 -7z
m-408 -10 c17 -14 17 -15 1 -10 -10 3 -34 6 -53 6 -21 0 -33 4 -29 10 10 15
59 12 81 -6z m2624 -14 c158 -28 160 -29 160 -44 0 -17 45 -27 59 -13 11 11
61 1 61 -13 0 -6 -25 -10 -55 -10 -56 0 -73 -13 -32 -24 12 -3 34 -6 50 -6 30
0 33 -8 13 -35 -12 -16 -17 -17 -44 -6 -17 7 -36 10 -42 6 -7 -5 9 -15 40 -26
49 -17 88 -16 60 1 -17 10 -3 30 21 30 28 0 23 -21 -16 -63 -40 -43 -45 -44
-45 -17 0 24 -13 26 -31 4 -10 -12 -23 -14 -56 -9 -50 7 -57 -1 -13 -17 17 -5
29 -15 27 -22 -4 -12 -23 -12 -71 0 -22 5 -28 4 -24 -7 2 -7 15 -16 28 -19 13
-3 25 -11 28 -19 3 -10 -6 -11 -42 -6 -55 9 -59 0 -11 -21 34 -14 40 -34 9
-34 -8 0 -14 -7 -14 -15 0 -18 1 -18 -43 0 -49 20 -58 1 -13 -26 22 -13 33
-26 29 -35 -7 -18 -13 -18 -52 2 -42 21 -53 10 -12 -13 36 -21 38 -33 11 -58
-18 -16 -20 -16 -46 4 -41 32 -53 24 -15 -10 43 -40 28 -57 -21 -24 -45 30
-61 15 -18 -16 37 -28 38 -39 5 -39 -14 0 -25 4 -25 8 0 5 -12 15 -27 22 -16
7 -23 15 -15 17 6 3 10 8 7 13 -3 4 2 13 10 20 19 16 19 28 -1 65 -9 17 -18
54 -19 83 -1 29 -5 55 -8 58 -3 4 -2 14 2 23 5 9 5 43 0 76 -8 60 -13 68 -77
112 -20 14 -25 14 -33 2 -5 -8 -6 -21 -2 -29 21 -50 12 -143 -31 -315 -14 -55
-37 -145 -51 -200 -13 -55 -22 -84 -19 -65 18 114 24 154 38 232 9 48 21 98
27 112 7 14 8 33 4 43 -5 10 -15 38 -24 63 -11 32 -21 44 -33 42 -9 -1 -19 2
-23 8 -6 10 -45 14 -45 5 0 -4 6 -18 14 -33 7 -15 16 -58 19 -97 l6 -70 -29
59 c-36 75 -42 97 -28 113 15 19 2 29 -17 13 -9 -7 -15 -9 -14 -4 1 5 -1 17
-5 26 -6 12 2 30 25 60 49 63 70 77 109 78 19 0 67 6 105 14 56 12 75 21 95
45 17 21 31 29 45 26 11 -3 72 -14 135 -25z m1300 0 c0 -5 -8 -10 -17 -10 -15
0 -16 2 -3 10 19 12 20 12 20 0z m-3989 -29 c-11 -7 -9 -10 10 -13 16 -2 24
-10 24 -23 0 -11 5 -29 12 -40 9 -17 7 -24 -13 -44 -13 -13 -24 -27 -24 -32 0
-5 -7 -9 -15 -9 -18 0 -18 2 -3 35 9 21 9 28 -1 34 -10 6 -9 12 4 24 15 15 15
19 1 39 -21 29 -20 38 2 38 14 0 14 -2 3 -9z m4094 -3 c-11 -6 -26 -18 -32
-26 -10 -12 -13 -12 -13 -3 0 17 30 40 50 40 10 0 9 -3 -5 -11z m-3654 -35
c-12 -20 -14 -14 -5 12 4 9 9 14 11 11 3 -2 0 -13 -6 -23z m3699 19 c0 -4 -15
-16 -32 -26 l-33 -18 29 26 c31 28 36 30 36 18z m-1112 -49 c-15 -15 -31 -23
-35 -19 -4 4 3 16 17 26 37 29 49 24 18 -7z m-5514 -174 c-2 -4 0 -10 6 -14 5
-3 10 0 10 6 0 7 15 -10 33 -39 18 -29 35 -50 38 -47 3 3 5 -8 4 -25 -1 -17
-4 -32 -7 -35 -7 -7 -118 120 -118 134 0 22 24 51 31 39 4 -7 6 -15 3 -19z
m2291 21 c8 -13 -5 -13 -25 0 -13 8 -13 10 2 10 9 0 20 -4 23 -10z m3121 -111
c2 -68 -7 -89 -38 -89 -15 0 -17 3 -8 19 16 32 13 50 -10 44 -11 -3 -20 -1
-20 5 0 19 54 92 64 89 6 -2 12 -33 12 -68z m-2261 21 c3 -5 1 -10 -4 -10 -6
0 -11 5 -11 10 0 6 2 10 4 10 3 0 8 -4 11 -10z m-42 -44 c15 -19 27 -41 27
-48 0 -7 -6 -4 -12 7 -6 11 -22 32 -36 48 -14 15 -22 27 -16 27 5 0 21 -16 37
-34z m1581 -18 c19 -13 35 -26 36 -30 0 -12 -28 -10 -35 2 -3 6 -19 10 -36 10
-16 0 -29 5 -29 10 0 6 5 10 11 10 5 0 7 5 4 10 -10 17 12 11 49 -12z m-1579
-121 c3 -72 -11 -65 -24 13 -15 90 -14 101 6 65 9 -16 17 -52 18 -78z m1540
-3 c0 -70 6 -84 38 -84 12 0 17 8 17 29 0 39 16 48 23 13 5 -28 -7 -62 -23
-62 -5 0 -19 -20 -31 -44 -12 -25 -25 -45 -28 -44 -20 2 -31 -4 -31 -16 0 -8
-7 -16 -15 -20 -21 -8 -19 29 5 83 11 24 18 46 15 49 -3 3 -5 0 -5 -7 0 -8 -7
-11 -15 -7 -10 3 -15 -1 -15 -13 0 -10 -11 -26 -25 -35 -32 -21 -38 -20 -30 5
7 20 5 21 -21 15 -27 -7 -28 -6 -12 11 17 20 78 133 78 146 0 4 7 24 15 44 14
34 16 35 37 20 20 -13 23 -23 23 -83z m112 4 c-2 -18 -4 -6 -4 27 0 33 2 48 4
33 2 -15 2 -42 0 -60z m-1583 36 c3 -8 2 -12 -4 -9 -6 3 -10 10 -10 16 0 14 7
11 14 -7z m2199 8 c-15 -9 -11 -44 5 -50 18 -6 3 -22 -21 -23 -12 0 -16 -3 -9
-6 16 -6 5 -23 -16 -23 -33 0 -44 -36 -37 -118 4 -46 3 -87 -4 -102 -7 -18
-10 -20 -10 -7 -1 9 -5 17 -10 17 -21 0 -41 -13 -41 -26 0 -11 -7 -13 -27 -7
-16 3 -67 7 -115 7 -88 1 -107 8 -65 26 39 16 70 49 70 75 0 33 12 40 48 25
28 -12 32 -11 57 17 15 16 35 33 45 36 9 4 17 14 17 24 0 13 -3 14 -12 5 -14
-14 -68 -16 -68 -2 0 6 11 10 24 10 13 0 30 8 37 17 13 15 11 16 -18 10 -37
-7 -42 -1 -15 19 19 15 56 19 48 5 -3 -5 1 -14 9 -21 12 -10 22 -7 52 16 31
23 34 29 20 32 -10 2 -27 -4 -38 -14 -10 -9 -22 -15 -25 -12 -7 8 40 58 55 58
6 0 11 5 11 10 0 6 10 10 23 10 14 0 18 -3 10 -8z m-596 -24 c-3 -8 -6 -5 -6
6 -1 11 2 17 5 13 3 -3 4 -12 1 -19z m513 12 c0 -5 -4 -10 -10 -10 -5 0 -10 5
-10 10 0 6 5 10 10 10 6 0 10 -4 10 -10z m-5065 -40 c9 -42 88 -200 115 -230
12 -14 29 -37 38 -52 9 -16 20 -28 25 -28 4 0 5 -5 2 -10 -12 -19 6 -48 38
-64 18 -8 26 -16 18 -16 -8 0 -4 -8 10 -21 l24 -20 -23 11 c-29 14 -102 88
-102 104 -1 6 -14 26 -30 45 -16 19 -27 38 -24 43 3 4 -1 8 -9 8 -7 0 -21 15
-31 33 -9 17 -34 64 -56 102 -21 39 -39 79 -38 90 0 17 1 17 5 3 8 -32 23 -19
16 14 -8 41 13 30 22 -12z m2802 -32 c-3 -8 -6 -5 -6 6 -1 11 2 17 5 13 3 -3
4 -12 1 -19z m233 -3 c13 -14 21 -25 18 -25 -2 0 -15 11 -28 25 -13 14 -21 25
-18 25 2 0 15 -11 28 -25z m-80 -15 c6 -11 7 -20 2 -20 -6 0 -12 9 -15 20 -3
11 -3 20 -1 20 2 0 8 -9 14 -20z m-90 -45 c0 -14 -4 -25 -10 -25 -11 0 -14 33
-3 43 11 11 13 8 13 -18z m333 -61 c-3 -8 -13 -3 -29 13 -32 32 -30 36 5 15
16 -9 27 -21 24 -28z m1299 24 c-7 -7 -12 -8 -12 -2 0 14 12 26 19 19 2 -3 -1
-11 -7 -17z m-1285 -170 c-3 -7 -5 -2 -5 12 0 14 2 19 5 13 2 -7 2 -19 0 -25z
m-51 -38 c16 0 27 -17 20 -29 -4 -5 -17 -4 -32 2 -18 9 -24 18 -21 35 2 12 0
22 -5 22 -5 0 -6 6 -1 13 5 8 10 3 17 -15 5 -16 15 -28 22 -28z m904 0 c0 -5
-5 -10 -11 -10 -5 0 -7 5 -4 10 3 6 8 10 11 10 2 0 4 -4 4 -10z m-811 -62 c-2
-30 -3 -35 -6 -15 -2 15 -9 27 -14 27 -8 0 10 28 19 30 1 0 1 -19 1 -42z
m4058 6 c-3 -3 -12 -4 -19 -1 -8 3 -5 6 6 6 11 1 17 -2 13 -5z m-4020 -51 c-3
-10 -5 -2 -5 17 0 19 2 27 5 18 2 -10 2 -26 0 -35z m3808 -7 c-10 -14 -21 -26
-26 -26 -5 0 -9 -9 -9 -20 0 -11 -4 -20 -9 -20 -16 0 1 44 27 72 31 33 40 30
17 -6z m-6859 -24 c-6 -5 -36 23 -36 34 0 4 9 -1 20 -11 11 -10 18 -20 16 -23z
m3684 -22 c0 -5 -5 -10 -11 -10 -5 0 -7 5 -4 10 3 6 8 10 11 10 2 0 4 -4 4
-10z m-179 -41 c-9 -22 -10 -22 -10 -3 -1 11 2 24 6 27 12 12 14 0 4 -24z
m-56 -39 c3 -5 -1 -10 -9 -10 -9 0 -16 5 -16 10 0 6 4 10 9 10 6 0 13 -4 16
-10z m-3128 -72 c-3 -8 -6 -5 -6 6 -1 11 2 17 5 13 3 -3 4 -12 1 -19z m6436
-8 c-3 -12 -8 -19 -11 -16 -5 6 5 36 12 36 2 0 2 -9 -1 -20z m-6483 -84 c-14
-14 -24 0 -16 21 6 15 8 15 16 3 6 -9 5 -19 0 -24z m165 -92 c9 -15 12 -23 6
-20 -11 7 -35 46 -28 46 3 0 12 -12 22 -26z m90 -54 c3 -5 1 -10 -4 -10 -6 0
-11 5 -11 10 0 6 2 10 4 10 3 0 8 -4 11 -10z m-35 -44 c0 -12 -5 -7 -19 24
-11 24 -11 24 3 6 9 -11 16 -24 16 -30z m5965 12 c-11 -6 -36 -24 -55 -40 -19
-16 -41 -33 -48 -39 -7 -6 -15 -9 -18 -6 -7 6 115 97 129 97 7 0 3 -6 -8 -12z
m42 -3 c0 -8 -4 -12 -9 -9 -5 3 -6 10 -3 15 9 13 12 11 12 -6z m-5757 -48 c0
-12 -66 -43 -82 -39 -5 1 -8 -2 -8 -8 0 -5 -4 -10 -10 -10 -23 0 5 30 38 41
21 6 41 15 47 20 12 12 15 11 15 -4z m5520 -212 c-7 -8 -17 -15 -23 -15 -6 0
-2 7 9 15 25 19 30 19 14 0z m-169 -115 c-13 -11 -28 -20 -35 -20 -6 0 3 9 19
19 39 25 46 25 16 1z m-203 -61 c-9 -5 -39 -27 -67 -49 -28 -22 -53 -40 -57
-40 -9 0 0 21 11 23 5 1 23 15 41 31 36 31 76 55 84 49 3 -3 -3 -9 -12 -14z
m102 -14 c-7 -8 -18 -15 -24 -15 -6 0 -2 7 8 15 25 19 32 19 16 0z m-61 -39
c-2 -2 -15 -9 -29 -15 -24 -11 -24 -11 -6 3 16 13 49 24 35 12z m-249 -100 c0
-2 -17 -16 -37 -31 l-38 -27 33 31 c30 29 42 37 42 27z m-365 -131 c-38 -7
-81 -13 -95 -13 -40 0 81 25 125 26 31 0 23 -3 -30 -13z m-137 -22 c-10 -2
-26 -2 -35 0 -10 3 -2 5 17 5 19 0 27 -2 18 -5z m-65 -10 c-7 -2 -21 -2 -30 0
-10 3 -4 5 12 5 17 0 24 -2 18 -5z m-353 -33 c0 -5 -5 -10 -11 -10 -5 0 -7 5
-4 10 3 6 8 10 11 10 2 0 4 -4 4 -10z m-80 -14 c0 -3 -4 -8 -10 -11 -5 -3 -10
-1 -10 4 0 6 5 11 10 11 6 0 10 -2 10 -4z m-132 -32 c-9 -8 -169 -36 -175 -30
-11 10 3 17 43 21 69 7 106 14 111 19 3 3 10 3 15 0 5 -3 8 -8 6 -10z m-1296
-59 c3 -14 1 -25 -3 -25 -5 0 -9 11 -9 25 0 14 2 25 4 25 2 0 6 -11 8 -25z
m51 -11 c-6 -17 -23 -9 -23 11 0 8 6 12 14 9 8 -3 12 -12 9 -20z m32 16 c3 -5
1 -10 -4 -10 -6 0 -11 5 -11 10 0 6 2 10 4 10 3 0 8 -4 11 -10z"/>
<path d="M8485 6350 c-3 -5 -2 -10 4 -10 5 0 13 5 16 10 3 6 2 10 -4 10 -5 0
-13 -4 -16 -10z"/>
<path d="M5520 3560 c-20 -20 -26 -41 -13 -53 8 -9 53 32 53 49 0 23 -19 25
-40 4z"/>
<path d="M5295 3443 c5 -10 10 -32 12 -49 4 -27 13 -34 84 -66 43 -20 79 -34
79 -32 0 31 -67 100 -142 147 -35 22 -42 21 -33 0z"/>
<path d="M5660 3176 c0 -19 32 -66 45 -66 16 0 31 38 18 50 -11 11 -63 24 -63
16z"/>
<path d="M5833 3123 c-23 -9 -14 -30 17 -43 27 -11 36 -10 75 10 25 13 45 27
45 32 0 8 -116 10 -137 1z"/>
<path d="M5531 3106 c2 -2 21 -13 41 -24 24 -14 35 -16 32 -8 -5 14 -46 36
-66 36 -6 0 -9 -2 -7 -4z"/>
<path d="M6191 3073 c43 -54 75 -65 103 -34 16 18 16 20 -6 35 -12 9 -42 16
-66 16 -41 0 -43 -1 -31 -17z"/>
<path d="M5865 2990 c3 -5 11 -10 16 -10 6 0 7 5 4 10 -3 6 -11 10 -16 10 -6
0 -7 -4 -4 -10z"/>
<path d="M6325 2980 c3 -5 14 -10 23 -10 15 0 15 2 2 10 -20 13 -33 13 -25 0z"/>
<path d="M10708 3123 c-32 -38 -27 -70 7 -45 10 7 35 48 35 57 0 12 -28 4 -42
-12z"/>
<path d="M10760 3105 c-7 -9 -10 -18 -7 -21 3 -3 10 4 17 15 13 25 8 27 -10 6z"/>
<path d="M10351 2967 c-6 -8 -28 -19 -49 -25 -35 -11 -91 -49 -81 -55 46 -27
48 -27 71 -4 26 25 81 97 75 97 -3 0 -10 -6 -16 -13z"/>
<path d="M9758 2954 c-16 -8 -28 -19 -28 -24 0 -17 18 -11 47 15 31 27 22 32
-19 9z"/>
<path d="M9646 2943 c-10 -25 10 -39 23 -15 10 19 6 32 -10 32 -4 0 -10 -8
-13 -17z"/>
<path d="M10356 2899 c-28 -22 -34 -39 -13 -38 14 0 63 59 49 59 -5 0 -21 -9
-36 -21z"/>
<path d="M9421 2884 c0 -11 3 -14 6 -6 3 7 2 16 -1 19 -3 4 -6 -2 -5 -13z"/>
<path d="M9486 2843 c8 -36 38 -68 54 -58 9 6 5 12 -15 22 -20 11 -24 18 -16
26 18 18 13 37 -9 37 -17 0 -19 -4 -14 -27z"/>
<path d="M9565 2839 c-10 -31 0 -33 19 -4 14 21 14 25 2 25 -8 0 -18 -9 -21
-21z"/>
<path d="M10327 2824 c-28 -25 -35 -44 -17 -44 6 0 10 6 10 14 0 7 10 20 23
29 12 8 20 17 17 21 -3 3 -18 -6 -33 -20z"/>
<path d="M9370 2831 c0 -6 5 -13 10 -16 6 -3 10 1 10 9 0 9 -4 16 -10 16 -5 0
-10 -4 -10 -9z"/>
<path d="M10583 2753 c9 -9 19 -14 23 -11 10 10 -6 28 -24 28 -15 0 -15 -1 1
-17z"/>
<path d="M9565 2749 c-4 -6 -5 -13 -2 -16 7 -7 27 6 27 18 0 12 -17 12 -25 -2z"/>
<path d="M9715 2730 c3 -5 10 -10 16 -10 5 0 9 5 9 10 0 6 -7 10 -16 10 -8 0
-12 -4 -9 -10z"/>
<path d="M9360 2589 c0 -12 12 -43 27 -70 20 -38 34 -51 62 -59 19 -5 37 -8
39 -6 2 3 -15 23 -37 46 -23 23 -41 51 -41 60 0 20 -25 50 -41 50 -5 0 -9 -10
-9 -21z"/>
<path d="M9507 2513 c-4 -6 0 -16 8 -23 21 -17 28 -8 11 15 -8 11 -15 14 -19
8z"/>
<path d="M8985 2460 c3 -5 11 -10 16 -10 6 0 7 5 4 10 -3 6 -11 10 -16 10 -6
0 -7 -4 -4 -10z"/>
<path d="M9057 2453 c-10 -10 -8 -53 2 -53 10 0 21 24 21 46 0 15 -12 19 -23
7z"/>
<path d="M9312 2414 c9 -11 26 -29 38 -41 13 -16 31 -23 56 -23 21 0 33 4 29
10 -3 6 -14 10 -23 10 -9 0 -26 11 -37 24 -12 14 -34 28 -51 32 -28 6 -28 6
-12 -12z"/>
<path d="M9430 2414 c0 -2 9 -8 20 -14 11 -6 20 -7 20 -2 0 6 -9 12 -20 15
-11 3 -20 3 -20 1z"/>
<path d="M9312 2254 c10 -10 20 -15 24 -12 3 4 -5 12 -18 18 -22 12 -22 12 -6
-6z"/>
<path d="M8816 2127 c-20 -53 -20 -67 -2 -67 21 0 31 21 16 30 -11 7 -10 13 3
34 19 28 22 46 8 46 -4 0 -16 -19 -25 -43z"/>
<path d="M8780 2024 c0 -17 22 -14 28 4 2 7 -3 12 -12 12 -9 0 -16 -7 -16 -16z"/>
<path d="M9470 1950 c0 -6 -8 -10 -17 -8 -15 3 -18 -4 -15 -37 4 -51 17 -65
36 -39 16 21 19 94 5 94 -5 0 -9 -5 -9 -10z"/>
<path d="M12881 6724 c0 -11 3 -14 6 -6 3 7 2 16 -1 19 -3 4 -6 -2 -5 -13z"/>
<path d="M9351 6677 c-5 -13 -11 -41 -12 -62 l-4 -40 70 -3 c78 -4 155 5 155
17 0 5 -23 31 -51 60 -48 47 -55 51 -101 51 -41 0 -50 -3 -57 -23z"/>
<path d="M8610 6620 c0 -5 4 -10 9 -10 6 0 13 5 16 10 3 6 -1 10 -9 10 -9 0
-16 -4 -16 -10z"/>
<path d="M8500 6600 c0 -5 5 -10 11 -10 5 0 7 5 4 10 -3 6 -8 10 -11 10 -2 0
-4 -4 -4 -10z"/>
<path d="M9811 6533 c-37 -5 -76 -42 -60 -57 5 -6 9 -18 9 -27 0 -10 10 -21
22 -24 11 -4 31 -18 43 -31 20 -21 31 -24 99 -24 61 0 76 -3 76 -15 0 -8 7
-15 15 -15 12 0 15 16 15 81 0 78 -1 81 -21 76 -16 -4 -28 1 -41 19 -17 20
-27 24 -71 22 -29 0 -67 -3 -86 -5z"/>
<path d="M8560 6504 c1 -10 7 -32 15 -49 l13 -30 1 30 c0 17 -6 39 -14 49 -15
20 -15 20 -15 0z"/>
<path d="M8716 6497 c3 -10 9 -15 12 -12 3 3 0 11 -7 18 -10 9 -11 8 -5 -6z"/>
<path d="M10942 6453 c-9 -16 -9 -30 2 -59 12 -36 13 -37 19 -14 3 14 2 41 -2
60 -7 33 -8 34 -19 13z"/>
<path d="M8975 6400 c3 -5 11 -10 16 -10 6 0 7 5 4 10 -3 6 -11 10 -16 10 -6
0 -7 -4 -4 -10z"/>
<path d="M8960 6371 c0 -10 19 -25 25 -20 1 2 -3 10 -11 17 -8 7 -14 8 -14 3z"/>
<path d="M8940 6296 c0 -4 7 -14 15 -22 8 -9 15 -11 15 -6 0 5 -7 15 -15 22
-8 7 -15 9 -15 6z"/>
<path d="M9965 6275 c-22 -8 -41 -18 -43 -24 -2 -5 -21 -7 -42 -4 -35 5 -40 3
-40 -13 0 -31 56 -52 158 -58 51 -3 110 -9 131 -12 33 -5 41 -3 50 15 16 29
-14 81 -45 81 -12 0 -27 7 -34 15 -16 19 -82 19 -135 0z"/>
<path d="M6000 6271 c0 -5 -9 -11 -20 -14 -27 -7 -27 -58 -1 -81 11 -10 29
-37 40 -59 11 -23 34 -57 50 -76 24 -27 34 -32 58 -27 22 5 34 19 55 63 31 64
27 76 -30 100 -18 7 -53 34 -78 58 -42 42 -74 57 -74 36z"/>
<path d="M8981 6277 c2 -1 13 -9 24 -17 19 -14 19 -14 6 3 -7 9 -18 17 -24 17
-6 0 -8 -1 -6 -3z"/>
<path d="M9186 6263 c-6 -14 -5 -15 5 -6 7 7 10 15 7 18 -3 3 -9 -2 -12 -12z"/>
<path d="M9037 6254 c3 -8 9 -11 14 -8 5 3 6 -2 3 -10 -4 -10 -1 -16 7 -16 12
0 12 -2 0 -9 -11 -7 -9 -13 8 -30 11 -11 17 -21 11 -21 -5 0 -6 -7 -3 -17 4
-11 3 -14 -5 -9 -7 4 -12 16 -12 27 0 20 -8 24 -26 11 -6 -4 2 -18 23 -35 25
-22 33 -25 33 -13 0 20 10 20 37 1 14 -10 24 -12 28 -5 3 5 0 10 -8 10 -8 0
-21 7 -28 17 -13 15 -12 15 10 4 l23 -13 -18 25 c-11 14 -22 23 -25 21 -4 -2
-12 3 -19 11 -7 8 -9 15 -5 15 4 0 2 7 -5 15 -7 8 -9 15 -4 15 13 0 -14 24
-30 26 -9 1 -12 -4 -9 -12z"/>
<path d="M10936 6186 c-9 -21 -16 -42 -16 -47 0 -4 -10 -15 -22 -23 -22 -15
-21 -16 24 -16 44 0 46 1 52 35 5 22 2 44 -8 62 l-14 27 -16 -38z"/>
<path d="M9183 6157 c7 -15 20 -27 31 -27 11 0 17 1 15 3 -2 1 -16 13 -31 26
l-28 24 13 -26z"/>
<path d="M12228 6173 c7 -3 16 -2 19 1 4 3 -2 6 -13 5 -11 0 -14 -3 -6 -6z"/>
<path d="M9205 6110 c3 -5 11 -10 16 -10 6 0 7 5 4 10 -3 6 -11 10 -16 10 -6
0 -7 -4 -4 -10z"/>
<path d="M9336 5935 c-3 -10 0 -12 11 -8 10 4 14 2 10 -4 -3 -5 0 -10 8 -10
20 0 19 10 -4 24 -15 10 -20 9 -25 -2z"/>
<path d="M9376 5876 c7 -17 54 -50 54 -38 0 4 -13 18 -30 30 -19 14 -27 17
-24 8z"/>
<path d="M3520 5760 c0 -5 7 -10 15 -10 8 0 15 5 15 10 0 6 -7 10 -15 10 -8 0
-15 -4 -15 -10z"/>
<path d="M9481 5714 c0 -11 3 -14 6 -6 3 7 2 16 -1 19 -3 4 -6 -2 -5 -13z"/>
<path d="M10295 5580 c-16 -4 -54 -8 -82 -9 -40 -1 -53 -5 -53 -16 0 -11 -11
-15 -40 -15 -27 0 -40 4 -40 14 0 30 -262 38 -320 8 -42 -21 -52 -60 -21 -91
10 -10 17 -21 15 -24 -2 -2 28 -11 66 -21 59 -14 81 -15 136 -5 95 17 188 9
217 -19 13 -12 33 -22 45 -22 12 0 22 -4 22 -10 0 -5 20 -10 44 -10 25 0 48 5
51 10 3 6 17 10 31 10 28 0 68 38 89 87 16 34 12 52 -17 96 -17 23 -26 27 -66
26 -26 -1 -60 -5 -77 -9z"/>
<path d="M9540 5551 c0 -5 6 -14 14 -20 12 -10 13 -8 9 8 -5 21 -23 30 -23 12z"/>
<path d="M9510 5533 c0 -12 28 -38 34 -32 2 2 -5 13 -15 23 -11 11 -19 15 -19
9z"/>
<path d="M10851 5506 c-34 -54 -29 -227 7 -268 25 -30 65 -23 85 15 26 49 25
190 -3 262 -9 24 -12 25 -27 14 -13 -11 -17 -11 -20 -1 -7 20 -20 14 -42 -22z"/>
<path d="M3428 5403 c6 -2 18 -2 25 0 6 3 1 5 -13 5 -14 0 -19 -2 -12 -5z"/>
<path d="M3318 5373 c6 -2 18 -2 25 0 6 3 1 5 -13 5 -14 0 -19 -2 -12 -5z"/>
<path d="M3365 5369 c-4 -6 -5 -12 -3 -14 7 -7 48 7 48 16 0 13 -37 11 -45 -2z"/>
<path d="M9493 5145 c0 -22 2 -30 4 -17 2 12 2 30 0 40 -3 9 -5 -1 -4 -23z"/>
<path d="M9491 5074 c0 -11 3 -14 6 -6 3 7 2 16 -1 19 -3 4 -6 -2 -5 -13z"/>
<path d="M12766 5011 c5 -4 23 -11 39 -15 28 -6 29 -5 11 9 -21 16 -67 22 -50
6z"/>
<path d="M12320 4999 c0 -16 37 -56 44 -48 2 2 -7 18 -20 34 -16 20 -24 25
-24 14z"/>
<path d="M12524 4925 c24 -18 39 -20 34 -2 -3 6 -15 13 -29 15 -23 2 -23 2 -5
-13z"/>
<path d="M12580 4925 c0 -8 2 -15 4 -15 2 0 11 -3 20 -6 23 -9 20 13 -4 26
-16 9 -20 8 -20 -5z"/>
<path d="M11715 4910 c-3 -5 -1 -10 4 -10 6 0 11 5 11 10 0 6 -2 10 -4 10 -3
0 -8 -4 -11 -10z"/>
<path d="M1460 4877 c0 -13 -5 -28 -12 -35 -15 -15 13 -26 47 -18 23 6 36 36
16 36 -5 0 -13 9 -16 20 -9 28 -35 25 -35 -3z"/>
<path d="M11593 4886 c-54 -20 -49 -27 8 -10 74 21 78 22 49 22 -14 0 -39 -6
-57 -12z"/>
<path d="M385 4861 c-3 -6 8 -17 24 -25 16 -9 32 -25 36 -36 7 -23 33 -26 60
-6 19 14 19 15 -10 26 -17 7 -47 21 -67 31 -22 12 -39 16 -43 10z"/>
<path d="M1651 4853 c0 -6 -4 -20 -7 -30 -5 -14 -4 -15 5 -7 7 7 11 20 8 30
-3 11 -5 14 -6 7z"/>
<path d="M1470 4760 c0 -5 6 -29 14 -52 8 -24 19 -77 25 -118 14 -95 30 -142
44 -137 18 6 12 106 -9 152 -9 22 -18 58 -18 80 -1 24 -9 49 -21 63 -20 23
-35 29 -35 12z"/>
<path d="M346 4491 c-11 -17 6 -41 28 -41 33 0 37 9 15 31 -21 21 -35 24 -43
10z"/>
<path d="M6430 4380 c-11 -7 -9 -11 12 -19 60 -22 109 -31 150 -26 79 11 88
15 88 35 0 19 -7 20 -117 20 -65 0 -125 -4 -133 -10z"/>
<path d="M1940 4247 c0 -8 -9 -22 -20 -32 -30 -27 -26 -82 10 -138 16 -26 34
-47 39 -47 29 0 35 163 7 205 -18 27 -36 33 -36 12z"/>
<path d="M0 4071 c0 -111 3 -127 30 -198 58 -147 103 -234 119 -231 13 3 16
16 14 63 -1 33 -6 69 -12 80 -20 45 -122 332 -127 363 -14 70 -24 37 -24 -77z"/>
<path d="M1516 3753 c4 -15 23 -65 42 -111 32 -76 36 -82 51 -68 14 15 13 22
-8 86 -22 63 -43 94 -79 114 -10 6 -11 1 -6 -21z"/>
<path d="M321 3374 c0 -11 3 -14 6 -6 3 7 2 16 -1 19 -3 4 -6 -2 -5 -13z"/>
<path d="M7 3313 c-4 -3 -7 -174 -7 -379 0 -328 2 -373 16 -378 12 -5 14 -16
9 -53 -4 -27 -11 -59 -16 -73 -5 -14 -8 -106 -7 -205 3 -176 3 -179 16 -120
22 101 43 143 99 206 29 33 53 64 53 69 0 5 -8 13 -17 19 -16 8 -16 15 -5 67
10 49 9 60 -3 74 -23 25 -19 34 28 64 37 25 46 27 72 17 23 -9 32 -8 43 3 12
12 12 23 -6 75 -12 34 -30 73 -41 88 -28 35 -29 136 -1 201 36 88 66 263 41
248 -6 -4 -11 -16 -11 -26 0 -10 -6 -23 -14 -27 -8 -4 -21 -33 -30 -64 -12
-39 -24 -60 -41 -69 -52 -28 -87 17 -115 150 -19 91 -43 133 -63 113z"/>
<path d="M1050 2782 c-19 -9 -46 -24 -58 -34 -22 -15 -22 -17 -5 -22 10 -3 47
-7 83 -8 58 -3 69 0 103 26 20 15 37 32 37 36 0 24 -111 25 -160 2z"/>
<path d="M704 2700 c-78 -6 -114 -14 -162 -35 l-62 -28 4 -41 c3 -22 14 -67
26 -99 12 -32 20 -61 17 -64 -3 -3 4 -15 16 -27 21 -22 54 -32 182 -57 61 -12
146 -38 155 -49 3 -3 22 -14 43 -25 33 -17 39 -18 48 -5 5 8 7 24 3 35 -3 11
-5 32 -5 46 1 14 -7 37 -18 50 -32 42 -51 87 -51 124 0 19 -5 44 -11 54 -9 13
-9 26 -1 51 10 26 9 31 -2 27 -11 -5 -12 0 -6 24 9 29 8 29 -33 28 -23 -1 -87
-5 -143 -9z"/>
<path d="M13216 2131 c-18 -18 -24 -31 -17 -35 15 -10 14 -43 -1 -49 -10 -3
-10 -7 -1 -18 10 -12 16 -36 22 -80 1 -4 15 -9 31 -12 20 -5 30 -12 30 -25 0
-11 14 -25 35 -35 50 -24 54 -22 52 23 -1 34 -5 39 -26 42 -24 3 -24 4 -6 21
14 15 20 16 26 5 7 -10 9 -9 9 4 0 19 48 48 68 41 7 -3 20 -2 30 2 16 7 16 8
-2 14 -17 7 -17 8 -2 24 13 12 23 14 41 7 32 -12 55 -3 55 21 0 22 -32 39 -38
21 -4 -12 -32 -5 -32 9 0 4 7 6 15 3 8 -4 15 -1 15 5 0 17 -60 13 -67 -5 -4
-11 -17 -15 -47 -13 -28 2 -52 -5 -76 -19 -46 -28 -50 -28 -50 8 0 17 -4 30
-10 30 -5 0 -10 6 -10 14 0 27 -17 26 -44 -3z"/>
<path d="M3470 2005 c0 -8 -5 -24 -11 -34 -10 -14 -8 -22 5 -37 65 -73 66 -77
73 -196 4 -83 11 -123 26 -152 29 -60 42 -69 69 -54 13 7 27 18 31 23 6 6 10
6 14 -2 2 -7 15 -13 27 -13 12 0 31 -7 42 -15 10 -8 36 -15 57 -15 26 0 37 -4
37 -15 0 -9 9 -15 25 -15 14 0 25 -4 25 -10 0 -5 7 -10 15 -10 8 0 15 7 15 15
0 8 5 16 10 16 20 3 25 5 48 19 25 17 29 30 7 30 -12 0 -15 14 -15 63 0 85
-19 177 -36 177 -8 0 -14 -7 -14 -15 0 -8 -6 -15 -14 -15 -18 0 -46 38 -46 61
0 14 -6 11 -29 -11 -34 -35 -61 -98 -61 -145 0 -47 -19 -45 -64 5 -20 22 -44
40 -53 40 -10 0 -27 7 -38 16 -17 13 -20 27 -20 117 0 91 -3 107 -25 144 -22
38 -29 43 -62 43 -27 0 -38 -4 -38 -15z"/>
<path d="M13646 1845 c-3 -8 -3 -15 0 -15 3 0 12 7 20 15 13 13 13 15 1 15 -8
0 -17 -7 -21 -15z"/>
<path d="M0 1495 c0 -179 3 -325 7 -325 3 0 39 33 78 73 39 39 96 95 126 123
30 29 81 80 114 115 34 35 76 76 95 92 154 123 169 139 149 163 -9 11 -41 14
-139 14 -70 0 -148 3 -173 6 -41 6 -47 10 -52 36 -6 26 -10 29 -34 24 -62 -15
-138 -18 -145 -7 -22 35 -26 -11 -26 -314z"/>
<path d="M11418 1113 c7 -3 16 -2 19 1 4 3 -2 6 -13 5 -11 0 -14 -3 -6 -6z"/>
<path d="M11560 1110 c134 -21 145 -21 130 -10 -11 8 13 10 93 8 59 -2 107 0
107 5 0 4 -84 6 -187 6 -113 -1 -170 -4 -143 -9z"/>
<path d="M11803 1093 c9 -2 25 -2 35 0 9 3 1 5 -18 5 -19 0 -27 -2 -17 -5z"/>
<path d="M3988 1010 c-21 -24 -105 -70 -127 -70 -17 0 -39 -46 -60 -127 -11
-46 -21 -97 -21 -114 0 -27 -70 -184 -89 -199 -8 -7 -41 -78 -41 -90 0 -6 8
-10 18 -10 11 0 17 -8 18 -25 1 -14 -2 -23 -6 -20 -5 3 -11 -1 -13 -7 -4 -10
-8 -9 -16 2 -9 12 -14 13 -28 2 -59 -41 -19 -40 -1243 -30 -641 6 -1199 11
-1240 12 -71 1 -75 0 -78 -21 l-3 -23 154 0 c86 0 323 -4 529 -10 430 -10 789
-18 1317 -26 362 -6 375 -7 426 -29 29 -13 55 -31 59 -40 3 -9 6 -55 6 -101
l0 -84 445 0 445 0 0 38 c0 20 -5 55 -11 77 -5 22 -14 88 -19 147 -9 102 -22
153 -94 367 -11 36 -26 66 -32 68 -6 2 -18 -13 -27 -34 -9 -21 -32 -58 -51
-83 -20 -25 -42 -59 -50 -76 -15 -33 -53 -75 -92 -101 -24 -15 -26 -15 -47 6
-21 20 -22 29 -20 169 2 132 5 154 29 217 15 39 30 95 34 125 5 30 11 69 15
86 7 30 6 31 -29 30 -25 -1 -43 -9 -58 -26z m-203 -700 c0 -18 -46 -35 -70
-26 -15 5 -15 8 6 26 27 22 64 23 64 0z"/>
<path d="M8161 206 c2 -2 29 -6 59 -9 34 -3 47 -2 35 3 -19 8 -103 14 -94 6z"/>
<path d="M10720 103 c-14 -3 -31 -9 -37 -15 -7 -6 -20 -7 -29 -4 -14 5 -15 4
-4 -8 10 -14 15 -13 36 1 13 8 33 13 44 10 13 -3 20 0 20 9 0 8 -1 13 -2 13
-2 -1 -14 -4 -28 -6z"/>
<path d="M10770 78 c0 -13 4 -29 8 -36 5 -8 8 1 8 23 -1 19 -4 35 -8 35 -5 0
-8 -10 -8 -22z"/>
<path d="M5042 40 c0 -14 2 -19 5 -12 2 6 2 18 0 25 -3 6 -5 1 -5 -13z"/>
<path d="M10600 44 c25 -7 54 -14 65 -14 17 0 17 -2 5 -10 -24 -15 -2 -12 30
5 17 9 30 20 30 26 0 6 -7 6 -21 -1 -15 -8 -29 -8 -51 -1 -17 6 -47 11 -67 10
l-36 0 45 -15z"/>
</g>
</svg>
